999
"DXF R12 Output" (www.mydxf.blogspot.com)
 0 
SECTION
 2 
HEADER
 9 
$ACADVER
 1 
AC1009
 9 
$EXTMIN
 10 
 0 
 20 
 0 
 9 
$EXTMAX
 10 
 8.5 
 20 
 11 
 0 
ENDSEC
 0 
SECTION
 2 
ENTITIES
0
LINE
8
Layer 1
10
4.978340
20
31.999900
11
7.073616
21
31.731478
0
LINE
8
Layer 1
10
7.073616
20
31.731478
11
8.995126
21
30.941134
0
LINE
8
Layer 1
10
8.995126
20
30.941134
11
10.648533
21
29.682927
0
LINE
8
Layer 1
10
10.648533
20
29.682927
11
11.939502
21
28.010913
0
LINE
8
Layer 1
10
11.939502
20
28.010913
11
12.748181
21
26.059434
0
LINE
8
Layer 1
10
12.748181
20
26.059434
11
13.017613
21
23.999276
0
LINE
8
Layer 1
10
13.017613
20
23.999276
11
12.747810
21
21.939167
0
LINE
8
Layer 1
10
12.747810
20
21.939167
11
11.938780
21
19.987834
0
LINE
8
Layer 1
10
11.938780
20
19.987834
11
10.647510
21
18.316053
0
LINE
8
Layer 1
10
10.647510
20
18.316053
11
8.993876
21
17.058143
0
LINE
8
Layer 1
10
8.993876
20
17.058143
11
7.072224
21
16.268145
0
LINE
8
Layer 1
10
7.072224
20
16.268145
11
4.976900
21
16.000100
0
LINE
8
Layer 1
10
4.976900
20
16.000100
11
1.999950
21
16.000100
0
LINE
8
Layer 1
10
1.999950
20
16.000100
11
1.221460
21
15.842930
0
LINE
8
Layer 1
10
1.221460
20
15.842930
11
0.585738
21
15.414313
0
LINE
8
Layer 1
10
0.585738
20
15.414313
11
0.157122
21
14.778590
0
LINE
8
Layer 1
10
0.157122
20
14.778590
11
-0.000048
21
14.000100
0
LINE
8
Layer 1
10
-0.000048
20
14.000100
11
-0.000048
21
2.000000
0
LINE
8
Layer 1
10
-0.000048
20
2.000000
11
0.157122
21
1.221510
0
LINE
8
Layer 1
10
0.157122
20
1.221510
11
0.585738
21
0.585787
0
LINE
8
Layer 1
10
0.585738
20
0.585787
11
1.221460
21
0.157170
0
LINE
8
Layer 1
10
1.221460
20
0.157170
11
1.999950
21
0.000000
0
LINE
8
Layer 1
10
1.999950
20
0.000000
11
24.960800
21
0.000000
0
LINE
8
Layer 1
10
24.960800
20
0.000000
11
25.710835
21
0.200946
0
LINE
8
Layer 1
10
25.710835
20
0.200946
11
26.259900
21
0.750000
0
LINE
8
Layer 1
10
26.259900
20
0.750000
11
27.142304
21
1.897568
0
LINE
8
Layer 1
10
27.142304
20
1.897568
11
28.273034
21
2.763091
0
LINE
8
Layer 1
10
28.273034
20
2.763091
11
29.587973
21
3.309551
0
LINE
8
Layer 1
10
29.587973
20
3.309551
11
31.023000
21
3.499931
0
LINE
8
Layer 1
10
31.023000
20
3.499931
11
32.458027
21
3.309551
0
LINE
8
Layer 1
10
32.458027
20
3.309551
11
33.772966
21
2.763091
0
LINE
8
Layer 1
10
33.772966
20
2.763091
11
34.903696
21
1.897568
0
LINE
8
Layer 1
10
34.903696
20
1.897568
11
35.786100
21
0.750000
0
LINE
8
Layer 1
10
35.786100
20
0.750000
11
36.335165
21
0.200946
0
LINE
8
Layer 1
10
36.335165
20
0.200946
11
37.085200
21
-0.000000
0
LINE
8
Layer 1
10
37.085200
20
-0.000000
11
43.704400
21
0.000000
0
LINE
8
Layer 1
10
43.704400
20
0.000000
11
44.710009
21
0.271195
0
LINE
8
Layer 1
10
44.710009
20
0.271195
11
45.442900
21
1.011240
0
LINE
8
Layer 1
10
45.442900
20
1.011240
11
47.322080
21
4.685775
0
LINE
8
Layer 1
10
47.322080
20
4.685775
11
48.865347
21
8.504844
0
LINE
8
Layer 1
10
48.865347
20
8.504844
11
50.064590
21
12.445501
0
LINE
8
Layer 1
10
50.064590
20
12.445501
11
50.911700
21
16.484800
0
LINE
8
Layer 1
10
50.911700
20
16.484800
11
51.267810
21
17.489702
0
LINE
8
Layer 1
10
51.267810
20
17.489702
11
51.929911
21
18.286317
0
LINE
8
Layer 1
10
51.929911
20
18.286317
11
52.823056
21
18.810973
0
LINE
8
Layer 1
10
52.823056
20
18.810973
11
53.872300
21
19.000000
0
LINE
8
Layer 1
10
53.872300
20
19.000000
11
54.432000
21
19.000000
0
LINE
8
Layer 1
10
54.432000
20
19.000000
11
55.181039
21
19.145131
0
LINE
8
Layer 1
10
55.181039
20
19.145131
11
55.802678
21
19.543574
0
LINE
8
Layer 1
10
55.802678
20
19.543574
11
56.238052
21
20.139930
0
LINE
8
Layer 1
10
56.238052
20
20.139930
11
56.428300
21
20.878800
0
LINE
8
Layer 1
10
56.428300
20
20.878800
11
56.522968
21
24.000000
0
LINE
8
Layer 1
10
56.522968
20
24.000000
11
56.428300
21
27.121200
0
LINE
8
Layer 1
10
56.428300
20
27.121200
11
56.238052
21
27.860070
0
LINE
8
Layer 1
10
56.238052
20
27.860070
11
55.802678
21
28.456426
0
LINE
8
Layer 1
10
55.802678
20
28.456426
11
55.181039
21
28.854869
0
LINE
8
Layer 1
10
55.181039
20
28.854869
11
54.432000
21
29.000000
0
LINE
8
Layer 1
10
54.432000
20
29.000000
11
53.872300
21
29.000000
0
LINE
8
Layer 1
10
53.872300
20
29.000000
11
52.823056
21
29.189027
0
LINE
8
Layer 1
10
52.823056
20
29.189027
11
51.929911
21
29.713683
0
LINE
8
Layer 1
10
51.929911
20
29.713683
11
51.267810
21
30.510298
0
LINE
8
Layer 1
10
51.267810
20
30.510298
11
50.911700
21
31.515200
0
LINE
8
Layer 1
10
50.911700
20
31.515200
11
50.064593
21
35.554509
0
LINE
8
Layer 1
10
50.064593
20
35.554509
11
48.865350
21
39.495176
0
LINE
8
Layer 1
10
48.865350
20
39.495176
11
47.322083
21
43.314255
0
LINE
8
Layer 1
10
47.322083
20
43.314255
11
45.442900
21
46.988800
0
LINE
8
Layer 1
10
45.442900
20
46.988800
11
44.710002
21
47.728822
0
LINE
8
Layer 1
10
44.710002
20
47.728822
11
43.704400
21
48.000000
0
LINE
8
Layer 1
10
43.704400
20
48.000000
11
37.085200
21
48.000000
0
LINE
8
Layer 1
10
37.085200
20
48.000000
11
36.335165
21
47.799054
0
LINE
8
Layer 1
10
36.335165
20
47.799054
11
35.786100
21
47.250000
0
LINE
8
Layer 1
10
35.786100
20
47.250000
11
34.903696
21
46.102432
0
LINE
8
Layer 1
10
34.903696
20
46.102432
11
33.772966
21
45.236909
0
LINE
8
Layer 1
10
33.772966
20
45.236909
11
32.458027
21
44.690449
0
LINE
8
Layer 1
10
32.458027
20
44.690449
11
31.023000
21
44.500069
0
LINE
8
Layer 1
10
31.023000
20
44.500069
11
29.587973
21
44.690449
0
LINE
8
Layer 1
10
29.587973
20
44.690449
11
28.273034
21
45.236909
0
LINE
8
Layer 1
10
28.273034
20
45.236909
11
27.142304
21
46.102432
0
LINE
8
Layer 1
10
27.142304
20
46.102432
11
26.259900
21
47.250000
0
LINE
8
Layer 1
10
26.259900
20
47.250000
11
25.710835
21
47.799054
0
LINE
8
Layer 1
10
25.710835
20
47.799054
11
24.960800
21
48.000000
0
LINE
8
Layer 1
10
24.960800
20
48.000000
11
1.999950
21
48.000000
0
LINE
8
Layer 1
10
1.999950
20
48.000000
11
1.221460
21
47.842830
0
LINE
8
Layer 1
10
1.221460
20
47.842830
11
0.585738
21
47.414213
0
LINE
8
Layer 1
10
0.585738
20
47.414213
11
0.157122
21
46.778490
0
LINE
8
Layer 1
10
0.157122
20
46.778490
11
-0.000048
21
46.000000
0
LINE
8
Layer 1
10
-0.000048
20
46.000000
11
-0.000048
21
33.999900
0
LINE
8
Layer 1
10
-0.000048
20
33.999900
11
0.157122
21
33.221410
0
LINE
8
Layer 1
10
0.157122
20
33.221410
11
0.585738
21
32.585687
0
LINE
8
Layer 1
10
0.585738
20
32.585687
11
1.221460
21
32.157070
0
LINE
8
Layer 1
10
1.221460
20
32.157070
11
1.999950
21
31.999900
0
LINE
8
Layer 1
10
1.999950
20
31.999900
11
4.978340
21
31.999900
0
LINE
8
Layer 1
10
4.978340
20
31.999900
11
4.978340
21
31.999900
 0 
ENDSEC
 0 
EOF