<?xml version="1.0" encoding="utf-8"?>
<!-- Generator: Fusion 360, Shaper Origin Export Add-In, Version 1.7.0  -->
<svg xmlns="http://www.w3.org/2000/svg" xmlns:xlink="http://www.w3.org/1999/xlink" xmlns:shaper="http://www.shapertools.com/namespaces/shaper" shaper:fusionaddin="version:1.7.0" width="5.6523052cm" height="4.8cm" version="1.1" x="0cm" y="0cm" viewBox="0 0 5.6523052 4.8" enable-background="new 0 0 5.6523052 4.8" xml:space="preserve"><path d="M-2.3330561,0.7999875 A0.8,0.8 90.3198907 1,0 -2.3332,-0.7999867 L-2.6308948,-0.7999867 A0.2,0.2 90 0,1 -2.8308948,-0.9999867 L-2.8308948,-2.2 A0.2,0.2 180 0,1 -2.6308948,-2.4 L-0.3348073,-2.4 A0.15,0.15 270 0,1 -0.2049035,-2.325 A0.55,0.55 149.9999967 0,0 0.7477244,-2.325 A0.15,0.15 210.0000033 0,1 0.8776282,-2.4 L1.5395495,-2.4 A0.2,0.2 270 0,1 1.7133985,-2.2988764 A4.65,4.65 330.3709915 0,1 2.2602801,-0.7515152 A0.3,0.3 170.6992834 0,0 2.5563362,-0.5 L2.6123112,-0.5 A0.2,0.2 270 0,1 2.8119435,-0.3121212 A5.15,5.15 356.5253991 0,1 2.8119435,0.3121212 A0.2,0.2 3.4746009 0,1 2.6123112,0.5 L2.5563362,0.5 A0.3,0.3 270 0,0 2.2602801,0.7515152 A4.65,4.65 9.3007166 0,1 1.7133985,2.2988764 A0.2,0.2 29.6290085 0,1 1.5395495,2.4 L0.8776282,2.4 A0.15,0.15 90 0,1 0.7477244,2.325 A0.55,0.55 329.9999967 0,0 -0.2049035,2.325 A0.15,0.15 30.0000033 0,1 -0.3348073,2.4 L-2.6308948,2.4 A0.2,0.2 90 0,1 -2.8308948,2.2 L-2.8308948,0.9999875 A0.2,0.2 180 0,1 -2.6308948,0.7999875 L-2.3330561,0.7999875z" transform="matrix(1,0,0,-1,2.8308948,2.4)" fill="rgb(0,0,0)" shaper:cutDepth="0.16cm" stroke-linecap="round" stroke-linejoin="round" /></svg>