%TF.GenerationSoftware,KiCad,Pcbnew,(5.1.9-0-10_14)*%
%TF.CreationDate,2024-01-29T22:25:58+01:00*%
%TF.ProjectId,masthead,6d617374-6865-4616-942e-6b696361645f,rev?*%
%TF.SameCoordinates,Original*%
%TF.FileFunction,Copper,L1,Top*%
%TF.FilePolarity,Positive*%
%FSLAX46Y46*%
G04 Gerber Fmt 4.6, Leading zero omitted, Abs format (unit mm)*
G04 Created by KiCad (PCBNEW (5.1.9-0-10_14)) date 2024-01-29 22:25:58*
%MOMM*%
%LPD*%
G01*
G04 APERTURE LIST*
%TA.AperFunction,ComponentPad*%
%ADD10O,1.700000X1.700000*%
%TD*%
%TA.AperFunction,ComponentPad*%
%ADD11R,1.700000X1.700000*%
%TD*%
%TA.AperFunction,ComponentPad*%
%ADD12C,0.100000*%
%TD*%
%TA.AperFunction,ComponentPad*%
%ADD13C,1.524000*%
%TD*%
%TA.AperFunction,ComponentPad*%
%ADD14O,1.500000X2.500000*%
%TD*%
%TA.AperFunction,ComponentPad*%
%ADD15R,1.500000X2.500000*%
%TD*%
%TA.AperFunction,ComponentPad*%
%ADD16C,1.600000*%
%TD*%
%TA.AperFunction,ComponentPad*%
%ADD17R,1.600000X1.600000*%
%TD*%
%TA.AperFunction,ComponentPad*%
%ADD18C,1.800000*%
%TD*%
%TA.AperFunction,Conductor*%
%ADD19C,0.250000*%
%TD*%
%TA.AperFunction,Conductor*%
%ADD20C,0.254000*%
%TD*%
%TA.AperFunction,Conductor*%
%ADD21C,0.100000*%
%TD*%
G04 APERTURE END LIST*
D10*
%TO.P,SW1,2*%
%TO.N,GND*%
X-18540000Y-31000000D03*
D11*
%TO.P,SW1,1*%
%TO.N,Net-(R1-Pad2)*%
X-16000000Y-31000000D03*
%TD*%
%TO.P,RH1,4*%
%TO.N,Net-(R3-Pad2)*%
%TA.AperFunction,ComponentPad*%
G36*
G01*
X24865291Y-42150011D02*
X24865291Y-42150011D01*
G75*
G02*
X23735703Y-41738875I-359226J770362D01*
G01*
X23735703Y-41738875D01*
G75*
G02*
X24146839Y-40609287I770362J359226D01*
G01*
X24146839Y-40609287D01*
G75*
G02*
X25276427Y-41020423I359226J-770362D01*
G01*
X25276427Y-41020423D01*
G75*
G02*
X24865291Y-42150011I-770362J-359226D01*
G01*
G37*
%TD.AperFunction*%
%TO.P,RH1,3*%
%TO.N,GND*%
%TA.AperFunction,ComponentPad*%
G36*
G01*
X22563270Y-43223461D02*
X22563270Y-43223461D01*
G75*
G02*
X21433682Y-42812325I-359226J770362D01*
G01*
X21433682Y-42812325D01*
G75*
G02*
X21844818Y-41682737I770362J359226D01*
G01*
X21844818Y-41682737D01*
G75*
G02*
X22974406Y-42093873I359226J-770362D01*
G01*
X22974406Y-42093873D01*
G75*
G02*
X22563270Y-43223461I-770362J-359226D01*
G01*
G37*
%TD.AperFunction*%
%TO.P,RH1,2*%
%TO.N,Net-(R2-Pad2)*%
%TA.AperFunction,ComponentPad*%
G36*
G01*
X20261248Y-44296912D02*
X20261248Y-44296912D01*
G75*
G02*
X19131660Y-43885776I-359226J770362D01*
G01*
X19131660Y-43885776D01*
G75*
G02*
X19542796Y-42756188I770362J359226D01*
G01*
X19542796Y-42756188D01*
G75*
G02*
X20672384Y-43167324I359226J-770362D01*
G01*
X20672384Y-43167324D01*
G75*
G02*
X20261248Y-44296912I-770362J-359226D01*
G01*
G37*
%TD.AperFunction*%
%TA.AperFunction,ComponentPad*%
D12*
%TO.P,RH1,1*%
%TO.N,+3V3*%
G36*
X18729587Y-45011136D02*
G01*
X17188864Y-45729587D01*
X16470413Y-44188864D01*
X18011136Y-43470413D01*
X18729587Y-45011136D01*
G37*
%TD.AperFunction*%
%TD*%
D13*
%TO.P,J2,1*%
%TO.N,GND*%
X18500000Y3500000D03*
X13500000Y3500000D03*
X18500000Y-3500000D03*
X13500000Y-3500000D03*
%TD*%
%TO.P,J1,1*%
%TO.N,Net-(J1-Pad1)*%
X-13500000Y3500000D03*
X-18500000Y3500000D03*
X-13500000Y-3500000D03*
X-18500000Y-3500000D03*
%TD*%
D14*
%TO.P,U1,3*%
%TO.N,+5V*%
X-10520000Y-11900000D03*
%TO.P,U1,2*%
%TO.N,GND*%
X-13060000Y-11900000D03*
D15*
%TO.P,U1,1*%
%TO.N,Net-(J1-Pad1)*%
X-15600000Y-11900000D03*
%TD*%
D16*
%TO.P,C1,2*%
%TO.N,GND*%
X11500000Y-9200000D03*
D17*
%TO.P,C1,1*%
%TO.N,+5V*%
X11500000Y-11700000D03*
%TD*%
D18*
%TO.P,U2,9*%
%TO.N,Net-(U2-Pad9)*%
X11430000Y-41160000D03*
%TO.P,U2,10*%
%TO.N,Net-(U2-Pad10)*%
X11430000Y-38620000D03*
%TO.P,U2,11*%
%TO.N,Net-(U2-Pad11)*%
X11430000Y-36080000D03*
%TO.P,U2,12*%
%TO.N,Net-(R1-Pad2)*%
X11430000Y-33540000D03*
%TO.P,U2,13*%
%TO.N,Net-(U2-Pad13)*%
X11430000Y-31000000D03*
%TO.P,U2,14*%
%TO.N,Net-(U2-Pad14)*%
X11430000Y-28460000D03*
%TO.P,U2,15*%
%TO.N,Net-(U2-Pad15)*%
X11430000Y-25920000D03*
%TO.P,U2,16*%
%TO.N,+3V3*%
X11430000Y-23380000D03*
%TO.P,U2,1*%
%TO.N,+5V*%
X-11430000Y-23380000D03*
%TO.P,U2,2*%
%TO.N,GND*%
X-11430000Y-25920000D03*
%TO.P,U2,3*%
%TO.N,Net-(U2-Pad3)*%
X-11430000Y-28460000D03*
%TO.P,U2,4*%
%TO.N,Net-(U2-Pad4)*%
X-11430000Y-31000000D03*
%TO.P,U2,5*%
%TO.N,Net-(R2-Pad2)*%
X-11430000Y-33540000D03*
%TO.P,U2,6*%
%TO.N,Net-(R3-Pad2)*%
X-11430000Y-36080000D03*
%TO.P,U2,7*%
%TO.N,Net-(U2-Pad7)*%
X-11430000Y-38620000D03*
%TO.P,U2,8*%
%TO.N,Net-(U2-Pad8)*%
X-11430000Y-41160000D03*
%TD*%
%TO.P,R3,2*%
%TO.N,Net-(R3-Pad2)*%
%TA.AperFunction,SMDPad,CuDef*%
G36*
G01*
X-7400000Y-35475000D02*
X-7400000Y-36725000D01*
G75*
G02*
X-7650000Y-36975000I-250000J0D01*
G01*
X-8450000Y-36975000D01*
G75*
G02*
X-8700000Y-36725000I0J250000D01*
G01*
X-8700000Y-35475000D01*
G75*
G02*
X-8450000Y-35225000I250000J0D01*
G01*
X-7650000Y-35225000D01*
G75*
G02*
X-7400000Y-35475000I0J-250000D01*
G01*
G37*
%TD.AperFunction*%
%TO.P,R3,1*%
%TO.N,+3V3*%
%TA.AperFunction,SMDPad,CuDef*%
G36*
G01*
X-4300000Y-35475000D02*
X-4300000Y-36725000D01*
G75*
G02*
X-4550000Y-36975000I-250000J0D01*
G01*
X-5350000Y-36975000D01*
G75*
G02*
X-5600000Y-36725000I0J250000D01*
G01*
X-5600000Y-35475000D01*
G75*
G02*
X-5350000Y-35225000I250000J0D01*
G01*
X-4550000Y-35225000D01*
G75*
G02*
X-4300000Y-35475000I0J-250000D01*
G01*
G37*
%TD.AperFunction*%
%TD*%
%TO.P,R2,2*%
%TO.N,Net-(R2-Pad2)*%
%TA.AperFunction,SMDPad,CuDef*%
G36*
G01*
X-7400000Y-32925000D02*
X-7400000Y-34175000D01*
G75*
G02*
X-7650000Y-34425000I-250000J0D01*
G01*
X-8450000Y-34425000D01*
G75*
G02*
X-8700000Y-34175000I0J250000D01*
G01*
X-8700000Y-32925000D01*
G75*
G02*
X-8450000Y-32675000I250000J0D01*
G01*
X-7650000Y-32675000D01*
G75*
G02*
X-7400000Y-32925000I0J-250000D01*
G01*
G37*
%TD.AperFunction*%
%TO.P,R2,1*%
%TO.N,+3V3*%
%TA.AperFunction,SMDPad,CuDef*%
G36*
G01*
X-4300000Y-32925000D02*
X-4300000Y-34175000D01*
G75*
G02*
X-4550000Y-34425000I-250000J0D01*
G01*
X-5350000Y-34425000D01*
G75*
G02*
X-5600000Y-34175000I0J250000D01*
G01*
X-5600000Y-32925000D01*
G75*
G02*
X-5350000Y-32675000I250000J0D01*
G01*
X-4550000Y-32675000D01*
G75*
G02*
X-4300000Y-32925000I0J-250000D01*
G01*
G37*
%TD.AperFunction*%
%TD*%
%TO.P,R1,2*%
%TO.N,Net-(R1-Pad2)*%
%TA.AperFunction,SMDPad,CuDef*%
G36*
G01*
X7300000Y-34125000D02*
X7300000Y-32875000D01*
G75*
G02*
X7550000Y-32625000I250000J0D01*
G01*
X8350000Y-32625000D01*
G75*
G02*
X8600000Y-32875000I0J-250000D01*
G01*
X8600000Y-34125000D01*
G75*
G02*
X8350000Y-34375000I-250000J0D01*
G01*
X7550000Y-34375000D01*
G75*
G02*
X7300000Y-34125000I0J250000D01*
G01*
G37*
%TD.AperFunction*%
%TO.P,R1,1*%
%TO.N,+3V3*%
%TA.AperFunction,SMDPad,CuDef*%
G36*
G01*
X4200000Y-34125000D02*
X4200000Y-32875000D01*
G75*
G02*
X4450000Y-32625000I250000J0D01*
G01*
X5250000Y-32625000D01*
G75*
G02*
X5500000Y-32875000I0J-250000D01*
G01*
X5500000Y-34125000D01*
G75*
G02*
X5250000Y-34375000I-250000J0D01*
G01*
X4450000Y-34375000D01*
G75*
G02*
X4200000Y-34125000I0J250000D01*
G01*
G37*
%TD.AperFunction*%
%TD*%
D19*
%TO.N,Net-(R1-Pad2)*%
X7990000Y-33540000D02*
X7950000Y-33500000D01*
X11430000Y-33540000D02*
X7990000Y-33540000D01*
%TO.N,Net-(R2-Pad2)*%
X-9050000Y-33550000D02*
X-8050000Y-33550000D01*
X-11420000Y-33550000D02*
X-11430000Y-33540000D01*
X-8050000Y-33550000D02*
X-11420000Y-33550000D01*
X-11430000Y-33540000D02*
X-11430000Y-33570000D01*
X-13300000Y-35410000D02*
X-11430000Y-33540000D01*
X-12300000Y-43000000D02*
X-13300000Y-42000000D01*
X-13300000Y-42000000D02*
X-13300000Y-35410000D01*
X19375472Y-43000000D02*
X-12300000Y-43000000D01*
X19902022Y-43526550D02*
X19375472Y-43000000D01*
%TO.N,Net-(R3-Pad2)*%
X24506065Y-41379649D02*
X24506065Y-41306065D01*
X24506065Y-41306065D02*
X24100000Y-40900000D01*
X24100000Y-40900000D02*
X14800000Y-40900000D01*
X14800000Y-40900000D02*
X13200000Y-42500000D01*
X-8070000Y-36080000D02*
X-8050000Y-36100000D01*
X-11430000Y-36080000D02*
X-8070000Y-36080000D01*
X-11430000Y-36080000D02*
X-11420000Y-36080000D01*
X-5000000Y-42500000D02*
X-2200000Y-42500000D01*
X-11420000Y-36080000D02*
X-5000000Y-42500000D01*
X-2200000Y-42500000D02*
X-2800000Y-42500000D01*
X13200000Y-42500000D02*
X-2200000Y-42500000D01*
%TO.N,Net-(U2-Pad13)*%
X11430000Y-31000000D02*
X11430000Y-30970000D01*
%TO.N,Net-(U2-Pad4)*%
X-11430000Y-31000000D02*
X-11400000Y-31000000D01*
%TD*%
D20*
%TO.N,Net-(J1-Pad1)*%
X-14705656Y4218980D02*
X-14822756Y3969952D01*
X-14889023Y3702865D01*
X-14901910Y3427983D01*
X-14860922Y3155867D01*
X-14767636Y2896977D01*
X-14705656Y2781020D01*
X-14465567Y2714041D01*
X-14581977Y2597631D01*
X-14501519Y2517173D01*
X-14528281Y2531518D01*
X-14570081Y2557443D01*
X-14625771Y2578329D01*
X-15128831Y2787393D01*
X-15183842Y2812384D01*
X-15230840Y2823392D01*
X-15277009Y2837456D01*
X-15337121Y2843448D01*
X-15839918Y2910153D01*
X-15851875Y2913780D01*
X-15900343Y2918554D01*
X-15948392Y2926437D01*
X-15995960Y2924832D01*
X-16043528Y2926437D01*
X-16091571Y2918554D01*
X-16140045Y2913780D01*
X-16152001Y2910153D01*
X-16654794Y2843448D01*
X-16714913Y2837456D01*
X-16761088Y2823390D01*
X-16808077Y2812384D01*
X-16863074Y2787399D01*
X-17366112Y2578343D01*
X-17421841Y2557443D01*
X-17463652Y2531511D01*
X-17506998Y2508277D01*
X-17552935Y2470487D01*
X-17780470Y2296316D01*
X-17714040Y2534435D01*
X-18500000Y3320395D01*
X-19285960Y2534435D01*
X-19218980Y2294344D01*
X-18969952Y2177244D01*
X-18702865Y2110977D01*
X-18427983Y2098090D01*
X-18155867Y2139078D01*
X-17896977Y2232364D01*
X-17787735Y2290755D01*
X-17985524Y2139353D01*
X-18034664Y2104214D01*
X-18067691Y2069022D01*
X-18102960Y2036066D01*
X-18138215Y1986989D01*
X-18477009Y1546376D01*
X-18515712Y1499120D01*
X-18538104Y1457127D01*
X-18563280Y1416731D01*
X-18584859Y1359570D01*
X-18797042Y845865D01*
X-18821912Y790804D01*
X-18832818Y743784D01*
X-18846782Y697584D01*
X-18852642Y637466D01*
X-18923117Y97267D01*
X-18932877Y38581D01*
X-18931325Y-10585D01*
X-18932877Y-59751D01*
X-18923117Y-118437D01*
X-18852642Y-658636D01*
X-18846782Y-718754D01*
X-18832818Y-764954D01*
X-18821912Y-811974D01*
X-18797042Y-867035D01*
X-18584859Y-1380740D01*
X-18563280Y-1437901D01*
X-18538104Y-1478297D01*
X-18515712Y-1520290D01*
X-18477009Y-1567546D01*
X-18138215Y-2008159D01*
X-18102960Y-2057236D01*
X-18067691Y-2090192D01*
X-18034664Y-2125384D01*
X-17985524Y-2160523D01*
X-17857977Y-2258157D01*
X-18030048Y-2177244D01*
X-18297135Y-2110977D01*
X-18572017Y-2098090D01*
X-18844133Y-2139078D01*
X-19103023Y-2232364D01*
X-19218980Y-2294344D01*
X-19285960Y-2534435D01*
X-18500000Y-3320395D01*
X-18485858Y-3306253D01*
X-18306253Y-3485858D01*
X-18320395Y-3500000D01*
X-17534435Y-4285960D01*
X-17294344Y-4218980D01*
X-17177244Y-3969952D01*
X-17110977Y-3702865D01*
X-17098090Y-3427983D01*
X-17139078Y-3155867D01*
X-17232364Y-2896977D01*
X-17294344Y-2781020D01*
X-17534433Y-2714041D01*
X-17418023Y-2597631D01*
X-17461864Y-2553790D01*
X-17421841Y-2578613D01*
X-17366112Y-2599513D01*
X-16863074Y-2808569D01*
X-16808077Y-2833554D01*
X-16761088Y-2844560D01*
X-16714913Y-2858626D01*
X-16654794Y-2864618D01*
X-16103794Y-2937719D01*
X-16043528Y-2947607D01*
X-15995960Y-2946002D01*
X-15948392Y-2947607D01*
X-15888109Y-2937716D01*
X-15337121Y-2864618D01*
X-15277009Y-2858626D01*
X-15230840Y-2844562D01*
X-15183842Y-2833554D01*
X-15128831Y-2808563D01*
X-14625771Y-2599499D01*
X-14570081Y-2578613D01*
X-14551328Y-2566982D01*
X-14581977Y-2597631D01*
X-14465567Y-2714041D01*
X-14705656Y-2781020D01*
X-14822756Y-3030048D01*
X-14889023Y-3297135D01*
X-14901910Y-3572017D01*
X-14860922Y-3844133D01*
X-14767636Y-4103023D01*
X-14705656Y-4218980D01*
X-14465565Y-4285960D01*
X-13679605Y-3500000D01*
X-13320395Y-3500000D01*
X-12534435Y-4285960D01*
X-12294344Y-4218980D01*
X-12177244Y-3969952D01*
X-12110977Y-3702865D01*
X-12098090Y-3427983D01*
X-12139078Y-3155867D01*
X-12232364Y-2896977D01*
X-12294344Y-2781020D01*
X-12534435Y-2714040D01*
X-13320395Y-3500000D01*
X-13679605Y-3500000D01*
X-13693748Y-3485858D01*
X-13514143Y-3306253D01*
X-13500000Y-3320395D01*
X-12714040Y-2534435D01*
X-12781020Y-2294344D01*
X-13030048Y-2177244D01*
X-13297135Y-2110977D01*
X-13572017Y-2098090D01*
X-13844133Y-2139078D01*
X-14097780Y-2230475D01*
X-14006397Y-2160524D01*
X-13957256Y-2125384D01*
X-13924229Y-2090192D01*
X-13888960Y-2057236D01*
X-13853706Y-2008160D01*
X-13514912Y-1567548D01*
X-13476208Y-1520291D01*
X-13453818Y-1478301D01*
X-13428640Y-1437902D01*
X-13407057Y-1380731D01*
X-13194874Y-867027D01*
X-13170008Y-811975D01*
X-13159104Y-764960D01*
X-13145138Y-718756D01*
X-13139277Y-658632D01*
X-13068802Y-118431D01*
X-13059043Y-59750D01*
X-13060595Y-10585D01*
X-13059043Y38580D01*
X-13068802Y97261D01*
X-13139277Y637462D01*
X-13145138Y697586D01*
X-13159104Y743790D01*
X-13170008Y790805D01*
X-13194874Y845857D01*
X-13407057Y1359561D01*
X-13428640Y1416732D01*
X-13453818Y1457131D01*
X-13476208Y1499121D01*
X-13514912Y1546378D01*
X-13853706Y1986990D01*
X-13888960Y2036066D01*
X-13924229Y2069022D01*
X-13957256Y2104214D01*
X-14006397Y2139354D01*
X-14192780Y2282024D01*
X-13969952Y2177244D01*
X-13702865Y2110977D01*
X-13427983Y2098090D01*
X-13155867Y2139078D01*
X-12896977Y2232364D01*
X-12781020Y2294344D01*
X-12714040Y2534435D01*
X-13500000Y3320395D01*
X-13514143Y3306253D01*
X-13693748Y3485858D01*
X-13679605Y3500000D01*
X-13693748Y3514143D01*
X-13514143Y3693748D01*
X-13500000Y3679605D01*
X-13485858Y3693748D01*
X-13306253Y3514143D01*
X-13320395Y3500000D01*
X-12534435Y2714040D01*
X-12294344Y2781020D01*
X-12177244Y3030048D01*
X-12110977Y3297135D01*
X-12098090Y3572017D01*
X-12139078Y3844133D01*
X-12232364Y4103023D01*
X-12294344Y4218980D01*
X-12503988Y4277466D01*
X-11127000Y4277466D01*
X-11127000Y-4873000D01*
X-13236052Y-4873000D01*
X-13155867Y-4860922D01*
X-12896977Y-4767636D01*
X-12781020Y-4705656D01*
X-12714040Y-4465565D01*
X-13500000Y-3679605D01*
X-14285960Y-4465565D01*
X-14218980Y-4705656D01*
X-13969952Y-4822756D01*
X-13767445Y-4873000D01*
X-18236052Y-4873000D01*
X-18155867Y-4860922D01*
X-17896977Y-4767636D01*
X-17781020Y-4705656D01*
X-17714040Y-4465565D01*
X-18500000Y-3679605D01*
X-18514143Y-3693748D01*
X-18693748Y-3514143D01*
X-18679605Y-3500000D01*
X-19465565Y-2714040D01*
X-19705656Y-2781020D01*
X-19822756Y-3030048D01*
X-19889023Y-3297135D01*
X-19901910Y-3572017D01*
X-19860922Y-3844133D01*
X-19840438Y-3900981D01*
X-20021835Y-3712940D01*
X-20191526Y-3373465D01*
X-20260960Y-2930309D01*
X-20260960Y2940077D01*
X-20151365Y3491050D01*
X-19880268Y3896775D01*
X-19833091Y3928298D01*
X-19889023Y3702865D01*
X-19901910Y3427983D01*
X-19860922Y3155867D01*
X-19767636Y2896977D01*
X-19705656Y2781020D01*
X-19465565Y2714040D01*
X-18679605Y3500000D01*
X-18693748Y3514143D01*
X-18514143Y3693748D01*
X-18500000Y3679605D01*
X-18485858Y3693748D01*
X-18306253Y3514143D01*
X-18320395Y3500000D01*
X-17534435Y2714040D01*
X-17294344Y2781020D01*
X-17177244Y3030048D01*
X-17110977Y3297135D01*
X-17098090Y3572017D01*
X-17139078Y3844133D01*
X-17232364Y4103023D01*
X-17294344Y4218980D01*
X-17503988Y4277466D01*
X-14496012Y4277466D01*
X-14705656Y4218980D01*
%TA.AperFunction,Conductor*%
D21*
G36*
X-14705656Y4218980D02*
G01*
X-14822756Y3969952D01*
X-14889023Y3702865D01*
X-14901910Y3427983D01*
X-14860922Y3155867D01*
X-14767636Y2896977D01*
X-14705656Y2781020D01*
X-14465567Y2714041D01*
X-14581977Y2597631D01*
X-14501519Y2517173D01*
X-14528281Y2531518D01*
X-14570081Y2557443D01*
X-14625771Y2578329D01*
X-15128831Y2787393D01*
X-15183842Y2812384D01*
X-15230840Y2823392D01*
X-15277009Y2837456D01*
X-15337121Y2843448D01*
X-15839918Y2910153D01*
X-15851875Y2913780D01*
X-15900343Y2918554D01*
X-15948392Y2926437D01*
X-15995960Y2924832D01*
X-16043528Y2926437D01*
X-16091571Y2918554D01*
X-16140045Y2913780D01*
X-16152001Y2910153D01*
X-16654794Y2843448D01*
X-16714913Y2837456D01*
X-16761088Y2823390D01*
X-16808077Y2812384D01*
X-16863074Y2787399D01*
X-17366112Y2578343D01*
X-17421841Y2557443D01*
X-17463652Y2531511D01*
X-17506998Y2508277D01*
X-17552935Y2470487D01*
X-17780470Y2296316D01*
X-17714040Y2534435D01*
X-18500000Y3320395D01*
X-19285960Y2534435D01*
X-19218980Y2294344D01*
X-18969952Y2177244D01*
X-18702865Y2110977D01*
X-18427983Y2098090D01*
X-18155867Y2139078D01*
X-17896977Y2232364D01*
X-17787735Y2290755D01*
X-17985524Y2139353D01*
X-18034664Y2104214D01*
X-18067691Y2069022D01*
X-18102960Y2036066D01*
X-18138215Y1986989D01*
X-18477009Y1546376D01*
X-18515712Y1499120D01*
X-18538104Y1457127D01*
X-18563280Y1416731D01*
X-18584859Y1359570D01*
X-18797042Y845865D01*
X-18821912Y790804D01*
X-18832818Y743784D01*
X-18846782Y697584D01*
X-18852642Y637466D01*
X-18923117Y97267D01*
X-18932877Y38581D01*
X-18931325Y-10585D01*
X-18932877Y-59751D01*
X-18923117Y-118437D01*
X-18852642Y-658636D01*
X-18846782Y-718754D01*
X-18832818Y-764954D01*
X-18821912Y-811974D01*
X-18797042Y-867035D01*
X-18584859Y-1380740D01*
X-18563280Y-1437901D01*
X-18538104Y-1478297D01*
X-18515712Y-1520290D01*
X-18477009Y-1567546D01*
X-18138215Y-2008159D01*
X-18102960Y-2057236D01*
X-18067691Y-2090192D01*
X-18034664Y-2125384D01*
X-17985524Y-2160523D01*
X-17857977Y-2258157D01*
X-18030048Y-2177244D01*
X-18297135Y-2110977D01*
X-18572017Y-2098090D01*
X-18844133Y-2139078D01*
X-19103023Y-2232364D01*
X-19218980Y-2294344D01*
X-19285960Y-2534435D01*
X-18500000Y-3320395D01*
X-18485858Y-3306253D01*
X-18306253Y-3485858D01*
X-18320395Y-3500000D01*
X-17534435Y-4285960D01*
X-17294344Y-4218980D01*
X-17177244Y-3969952D01*
X-17110977Y-3702865D01*
X-17098090Y-3427983D01*
X-17139078Y-3155867D01*
X-17232364Y-2896977D01*
X-17294344Y-2781020D01*
X-17534433Y-2714041D01*
X-17418023Y-2597631D01*
X-17461864Y-2553790D01*
X-17421841Y-2578613D01*
X-17366112Y-2599513D01*
X-16863074Y-2808569D01*
X-16808077Y-2833554D01*
X-16761088Y-2844560D01*
X-16714913Y-2858626D01*
X-16654794Y-2864618D01*
X-16103794Y-2937719D01*
X-16043528Y-2947607D01*
X-15995960Y-2946002D01*
X-15948392Y-2947607D01*
X-15888109Y-2937716D01*
X-15337121Y-2864618D01*
X-15277009Y-2858626D01*
X-15230840Y-2844562D01*
X-15183842Y-2833554D01*
X-15128831Y-2808563D01*
X-14625771Y-2599499D01*
X-14570081Y-2578613D01*
X-14551328Y-2566982D01*
X-14581977Y-2597631D01*
X-14465567Y-2714041D01*
X-14705656Y-2781020D01*
X-14822756Y-3030048D01*
X-14889023Y-3297135D01*
X-14901910Y-3572017D01*
X-14860922Y-3844133D01*
X-14767636Y-4103023D01*
X-14705656Y-4218980D01*
X-14465565Y-4285960D01*
X-13679605Y-3500000D01*
X-13320395Y-3500000D01*
X-12534435Y-4285960D01*
X-12294344Y-4218980D01*
X-12177244Y-3969952D01*
X-12110977Y-3702865D01*
X-12098090Y-3427983D01*
X-12139078Y-3155867D01*
X-12232364Y-2896977D01*
X-12294344Y-2781020D01*
X-12534435Y-2714040D01*
X-13320395Y-3500000D01*
X-13679605Y-3500000D01*
X-13693748Y-3485858D01*
X-13514143Y-3306253D01*
X-13500000Y-3320395D01*
X-12714040Y-2534435D01*
X-12781020Y-2294344D01*
X-13030048Y-2177244D01*
X-13297135Y-2110977D01*
X-13572017Y-2098090D01*
X-13844133Y-2139078D01*
X-14097780Y-2230475D01*
X-14006397Y-2160524D01*
X-13957256Y-2125384D01*
X-13924229Y-2090192D01*
X-13888960Y-2057236D01*
X-13853706Y-2008160D01*
X-13514912Y-1567548D01*
X-13476208Y-1520291D01*
X-13453818Y-1478301D01*
X-13428640Y-1437902D01*
X-13407057Y-1380731D01*
X-13194874Y-867027D01*
X-13170008Y-811975D01*
X-13159104Y-764960D01*
X-13145138Y-718756D01*
X-13139277Y-658632D01*
X-13068802Y-118431D01*
X-13059043Y-59750D01*
X-13060595Y-10585D01*
X-13059043Y38580D01*
X-13068802Y97261D01*
X-13139277Y637462D01*
X-13145138Y697586D01*
X-13159104Y743790D01*
X-13170008Y790805D01*
X-13194874Y845857D01*
X-13407057Y1359561D01*
X-13428640Y1416732D01*
X-13453818Y1457131D01*
X-13476208Y1499121D01*
X-13514912Y1546378D01*
X-13853706Y1986990D01*
X-13888960Y2036066D01*
X-13924229Y2069022D01*
X-13957256Y2104214D01*
X-14006397Y2139354D01*
X-14192780Y2282024D01*
X-13969952Y2177244D01*
X-13702865Y2110977D01*
X-13427983Y2098090D01*
X-13155867Y2139078D01*
X-12896977Y2232364D01*
X-12781020Y2294344D01*
X-12714040Y2534435D01*
X-13500000Y3320395D01*
X-13514143Y3306253D01*
X-13693748Y3485858D01*
X-13679605Y3500000D01*
X-13693748Y3514143D01*
X-13514143Y3693748D01*
X-13500000Y3679605D01*
X-13485858Y3693748D01*
X-13306253Y3514143D01*
X-13320395Y3500000D01*
X-12534435Y2714040D01*
X-12294344Y2781020D01*
X-12177244Y3030048D01*
X-12110977Y3297135D01*
X-12098090Y3572017D01*
X-12139078Y3844133D01*
X-12232364Y4103023D01*
X-12294344Y4218980D01*
X-12503988Y4277466D01*
X-11127000Y4277466D01*
X-11127000Y-4873000D01*
X-13236052Y-4873000D01*
X-13155867Y-4860922D01*
X-12896977Y-4767636D01*
X-12781020Y-4705656D01*
X-12714040Y-4465565D01*
X-13500000Y-3679605D01*
X-14285960Y-4465565D01*
X-14218980Y-4705656D01*
X-13969952Y-4822756D01*
X-13767445Y-4873000D01*
X-18236052Y-4873000D01*
X-18155867Y-4860922D01*
X-17896977Y-4767636D01*
X-17781020Y-4705656D01*
X-17714040Y-4465565D01*
X-18500000Y-3679605D01*
X-18514143Y-3693748D01*
X-18693748Y-3514143D01*
X-18679605Y-3500000D01*
X-19465565Y-2714040D01*
X-19705656Y-2781020D01*
X-19822756Y-3030048D01*
X-19889023Y-3297135D01*
X-19901910Y-3572017D01*
X-19860922Y-3844133D01*
X-19840438Y-3900981D01*
X-20021835Y-3712940D01*
X-20191526Y-3373465D01*
X-20260960Y-2930309D01*
X-20260960Y2940077D01*
X-20151365Y3491050D01*
X-19880268Y3896775D01*
X-19833091Y3928298D01*
X-19889023Y3702865D01*
X-19901910Y3427983D01*
X-19860922Y3155867D01*
X-19767636Y2896977D01*
X-19705656Y2781020D01*
X-19465565Y2714040D01*
X-18679605Y3500000D01*
X-18693748Y3514143D01*
X-18514143Y3693748D01*
X-18500000Y3679605D01*
X-18485858Y3693748D01*
X-18306253Y3514143D01*
X-18320395Y3500000D01*
X-17534435Y2714040D01*
X-17294344Y2781020D01*
X-17177244Y3030048D01*
X-17110977Y3297135D01*
X-17098090Y3572017D01*
X-17139078Y3844133D01*
X-17232364Y4103023D01*
X-17294344Y4218980D01*
X-17503988Y4277466D01*
X-14496012Y4277466D01*
X-14705656Y4218980D01*
G37*
%TD.AperFunction*%
%TD*%
D20*
%TO.N,GND*%
X12294344Y4218980D02*
X12177244Y3969952D01*
X12110977Y3702865D01*
X12098090Y3427983D01*
X12139078Y3155867D01*
X12232364Y2896977D01*
X12294344Y2781020D01*
X12534435Y2714040D01*
X13320395Y3500000D01*
X13306253Y3514143D01*
X13485858Y3693748D01*
X13500000Y3679605D01*
X13514143Y3693748D01*
X13693748Y3514143D01*
X13679605Y3500000D01*
X14465565Y2714040D01*
X14705656Y2781020D01*
X14822756Y3030048D01*
X14889023Y3297135D01*
X14901910Y3572017D01*
X14860922Y3844133D01*
X14767636Y4103023D01*
X14705656Y4218980D01*
X14496012Y4277466D01*
X17503988Y4277466D01*
X17294344Y4218980D01*
X17177244Y3969952D01*
X17110977Y3702865D01*
X17098090Y3427983D01*
X17139078Y3155867D01*
X17232364Y2896977D01*
X17294344Y2781020D01*
X17534433Y2714041D01*
X17418023Y2597631D01*
X17498435Y2517219D01*
X17471759Y2531518D01*
X17429959Y2557443D01*
X17374269Y2578329D01*
X16871209Y2787393D01*
X16816198Y2812384D01*
X16769200Y2823392D01*
X16723031Y2837456D01*
X16662919Y2843448D01*
X16160122Y2910153D01*
X16148165Y2913780D01*
X16099697Y2918554D01*
X16051648Y2926437D01*
X16004080Y2924832D01*
X15956512Y2926437D01*
X15908469Y2918554D01*
X15859995Y2913780D01*
X15848039Y2910153D01*
X15345246Y2843448D01*
X15285127Y2837456D01*
X15238952Y2823390D01*
X15191963Y2812384D01*
X15136966Y2787399D01*
X14633928Y2578343D01*
X14578199Y2557443D01*
X14536388Y2531511D01*
X14493042Y2508277D01*
X14447105Y2470487D01*
X14219519Y2296277D01*
X14285960Y2534435D01*
X13500000Y3320395D01*
X12714040Y2534435D01*
X12781020Y2294344D01*
X13030048Y2177244D01*
X13297135Y2110977D01*
X13572017Y2098090D01*
X13844133Y2139078D01*
X14103023Y2232364D01*
X14212398Y2290826D01*
X14014516Y2139353D01*
X13965376Y2104214D01*
X13932349Y2069022D01*
X13897080Y2036066D01*
X13861825Y1986989D01*
X13523031Y1546376D01*
X13484328Y1499120D01*
X13461936Y1457127D01*
X13436760Y1416731D01*
X13415181Y1359570D01*
X13202998Y845865D01*
X13178128Y790804D01*
X13167222Y743784D01*
X13153258Y697584D01*
X13147398Y637466D01*
X13076923Y97267D01*
X13067163Y38581D01*
X13068715Y-10585D01*
X13067163Y-59751D01*
X13076923Y-118437D01*
X13147398Y-658636D01*
X13153258Y-718754D01*
X13167222Y-764954D01*
X13178128Y-811974D01*
X13202998Y-867035D01*
X13415181Y-1380740D01*
X13436760Y-1437901D01*
X13461936Y-1478297D01*
X13484328Y-1520290D01*
X13523031Y-1567546D01*
X13861825Y-2008159D01*
X13897080Y-2057236D01*
X13932349Y-2090192D01*
X13965376Y-2125384D01*
X14014516Y-2160523D01*
X14142127Y-2258206D01*
X13969952Y-2177244D01*
X13702865Y-2110977D01*
X13427983Y-2098090D01*
X13155867Y-2139078D01*
X12896977Y-2232364D01*
X12781020Y-2294344D01*
X12714040Y-2534435D01*
X13500000Y-3320395D01*
X13514143Y-3306253D01*
X13693748Y-3485858D01*
X13679605Y-3500000D01*
X14465565Y-4285960D01*
X14705656Y-4218980D01*
X14822756Y-3969952D01*
X14889023Y-3702865D01*
X14901910Y-3427983D01*
X14860922Y-3155867D01*
X14767636Y-2896977D01*
X14705656Y-2781020D01*
X14465567Y-2714041D01*
X14581977Y-2597631D01*
X14538071Y-2553725D01*
X14578199Y-2578613D01*
X14633928Y-2599513D01*
X15136966Y-2808569D01*
X15191963Y-2833554D01*
X15238952Y-2844560D01*
X15285127Y-2858626D01*
X15345246Y-2864618D01*
X15896246Y-2937719D01*
X15956512Y-2947607D01*
X16004080Y-2946002D01*
X16051648Y-2947607D01*
X16111931Y-2937716D01*
X16662919Y-2864618D01*
X16723031Y-2858626D01*
X16769200Y-2844562D01*
X16816198Y-2833554D01*
X16871209Y-2808563D01*
X17374269Y-2599499D01*
X17429959Y-2578613D01*
X17448606Y-2567048D01*
X17418023Y-2597631D01*
X17534433Y-2714041D01*
X17294344Y-2781020D01*
X17177244Y-3030048D01*
X17110977Y-3297135D01*
X17098090Y-3572017D01*
X17139078Y-3844133D01*
X17232364Y-4103023D01*
X17294344Y-4218980D01*
X17534435Y-4285960D01*
X18320395Y-3500000D01*
X18306253Y-3485858D01*
X18485858Y-3306253D01*
X18500000Y-3320395D01*
X19285960Y-2534435D01*
X19218980Y-2294344D01*
X18969952Y-2177244D01*
X18702865Y-2110977D01*
X18427983Y-2098090D01*
X18155867Y-2139078D01*
X17902295Y-2230448D01*
X17993643Y-2160524D01*
X18042784Y-2125384D01*
X18075811Y-2090192D01*
X18111080Y-2057236D01*
X18146334Y-2008160D01*
X18485128Y-1567548D01*
X18523832Y-1520291D01*
X18546222Y-1478301D01*
X18571400Y-1437902D01*
X18592983Y-1380731D01*
X18805166Y-867027D01*
X18830032Y-811975D01*
X18840936Y-764960D01*
X18854902Y-718756D01*
X18860763Y-658632D01*
X18931238Y-118431D01*
X18940997Y-59750D01*
X18939445Y-10585D01*
X18940997Y38580D01*
X18931238Y97261D01*
X18860763Y637462D01*
X18854902Y697586D01*
X18840936Y743790D01*
X18830032Y790805D01*
X18805166Y845857D01*
X18592983Y1359561D01*
X18571400Y1416732D01*
X18546222Y1457131D01*
X18523832Y1499121D01*
X18485128Y1546378D01*
X18146334Y1986990D01*
X18111080Y2036066D01*
X18075811Y2069022D01*
X18042784Y2104214D01*
X17993643Y2139354D01*
X17807324Y2281975D01*
X18030048Y2177244D01*
X18297135Y2110977D01*
X18572017Y2098090D01*
X18844133Y2139078D01*
X19103023Y2232364D01*
X19218980Y2294344D01*
X19285960Y2534435D01*
X18500000Y3320395D01*
X18485858Y3306253D01*
X18306253Y3485858D01*
X18320395Y3500000D01*
X18306253Y3514143D01*
X18485858Y3693748D01*
X18500000Y3679605D01*
X18514143Y3693748D01*
X18693748Y3514143D01*
X18679605Y3500000D01*
X19465565Y2714040D01*
X19705656Y2781020D01*
X19822756Y3030048D01*
X19889023Y3297135D01*
X19901910Y3572017D01*
X19860922Y3844133D01*
X19827229Y3937639D01*
X19888389Y3896773D01*
X20159485Y3491050D01*
X20269081Y2940072D01*
X20269080Y-2748193D01*
X20199640Y-3191351D01*
X20029937Y-3530830D01*
X19890303Y-3675571D01*
X19901910Y-3427983D01*
X19860922Y-3155867D01*
X19767636Y-2896977D01*
X19705656Y-2781020D01*
X19465565Y-2714040D01*
X18679605Y-3500000D01*
X18693748Y-3514143D01*
X18514143Y-3693748D01*
X18500000Y-3679605D01*
X17714040Y-4465565D01*
X17781020Y-4705656D01*
X18030048Y-4822756D01*
X18297135Y-4889023D01*
X18467034Y-4896988D01*
X18448009Y-4956849D01*
X11127000Y-4956849D01*
X11127000Y-4465565D01*
X12714040Y-4465565D01*
X12781020Y-4705656D01*
X13030048Y-4822756D01*
X13297135Y-4889023D01*
X13572017Y-4901910D01*
X13844133Y-4860922D01*
X14103023Y-4767636D01*
X14218980Y-4705656D01*
X14285960Y-4465565D01*
X13500000Y-3679605D01*
X12714040Y-4465565D01*
X11127000Y-4465565D01*
X11127000Y-3572017D01*
X12098090Y-3572017D01*
X12139078Y-3844133D01*
X12232364Y-4103023D01*
X12294344Y-4218980D01*
X12534435Y-4285960D01*
X13320395Y-3500000D01*
X12534435Y-2714040D01*
X12294344Y-2781020D01*
X12177244Y-3030048D01*
X12110977Y-3297135D01*
X12098090Y-3572017D01*
X11127000Y-3572017D01*
X11127000Y4277466D01*
X12503988Y4277466D01*
X12294344Y4218980D01*
%TA.AperFunction,Conductor*%
D21*
G36*
X12294344Y4218980D02*
G01*
X12177244Y3969952D01*
X12110977Y3702865D01*
X12098090Y3427983D01*
X12139078Y3155867D01*
X12232364Y2896977D01*
X12294344Y2781020D01*
X12534435Y2714040D01*
X13320395Y3500000D01*
X13306253Y3514143D01*
X13485858Y3693748D01*
X13500000Y3679605D01*
X13514143Y3693748D01*
X13693748Y3514143D01*
X13679605Y3500000D01*
X14465565Y2714040D01*
X14705656Y2781020D01*
X14822756Y3030048D01*
X14889023Y3297135D01*
X14901910Y3572017D01*
X14860922Y3844133D01*
X14767636Y4103023D01*
X14705656Y4218980D01*
X14496012Y4277466D01*
X17503988Y4277466D01*
X17294344Y4218980D01*
X17177244Y3969952D01*
X17110977Y3702865D01*
X17098090Y3427983D01*
X17139078Y3155867D01*
X17232364Y2896977D01*
X17294344Y2781020D01*
X17534433Y2714041D01*
X17418023Y2597631D01*
X17498435Y2517219D01*
X17471759Y2531518D01*
X17429959Y2557443D01*
X17374269Y2578329D01*
X16871209Y2787393D01*
X16816198Y2812384D01*
X16769200Y2823392D01*
X16723031Y2837456D01*
X16662919Y2843448D01*
X16160122Y2910153D01*
X16148165Y2913780D01*
X16099697Y2918554D01*
X16051648Y2926437D01*
X16004080Y2924832D01*
X15956512Y2926437D01*
X15908469Y2918554D01*
X15859995Y2913780D01*
X15848039Y2910153D01*
X15345246Y2843448D01*
X15285127Y2837456D01*
X15238952Y2823390D01*
X15191963Y2812384D01*
X15136966Y2787399D01*
X14633928Y2578343D01*
X14578199Y2557443D01*
X14536388Y2531511D01*
X14493042Y2508277D01*
X14447105Y2470487D01*
X14219519Y2296277D01*
X14285960Y2534435D01*
X13500000Y3320395D01*
X12714040Y2534435D01*
X12781020Y2294344D01*
X13030048Y2177244D01*
X13297135Y2110977D01*
X13572017Y2098090D01*
X13844133Y2139078D01*
X14103023Y2232364D01*
X14212398Y2290826D01*
X14014516Y2139353D01*
X13965376Y2104214D01*
X13932349Y2069022D01*
X13897080Y2036066D01*
X13861825Y1986989D01*
X13523031Y1546376D01*
X13484328Y1499120D01*
X13461936Y1457127D01*
X13436760Y1416731D01*
X13415181Y1359570D01*
X13202998Y845865D01*
X13178128Y790804D01*
X13167222Y743784D01*
X13153258Y697584D01*
X13147398Y637466D01*
X13076923Y97267D01*
X13067163Y38581D01*
X13068715Y-10585D01*
X13067163Y-59751D01*
X13076923Y-118437D01*
X13147398Y-658636D01*
X13153258Y-718754D01*
X13167222Y-764954D01*
X13178128Y-811974D01*
X13202998Y-867035D01*
X13415181Y-1380740D01*
X13436760Y-1437901D01*
X13461936Y-1478297D01*
X13484328Y-1520290D01*
X13523031Y-1567546D01*
X13861825Y-2008159D01*
X13897080Y-2057236D01*
X13932349Y-2090192D01*
X13965376Y-2125384D01*
X14014516Y-2160523D01*
X14142127Y-2258206D01*
X13969952Y-2177244D01*
X13702865Y-2110977D01*
X13427983Y-2098090D01*
X13155867Y-2139078D01*
X12896977Y-2232364D01*
X12781020Y-2294344D01*
X12714040Y-2534435D01*
X13500000Y-3320395D01*
X13514143Y-3306253D01*
X13693748Y-3485858D01*
X13679605Y-3500000D01*
X14465565Y-4285960D01*
X14705656Y-4218980D01*
X14822756Y-3969952D01*
X14889023Y-3702865D01*
X14901910Y-3427983D01*
X14860922Y-3155867D01*
X14767636Y-2896977D01*
X14705656Y-2781020D01*
X14465567Y-2714041D01*
X14581977Y-2597631D01*
X14538071Y-2553725D01*
X14578199Y-2578613D01*
X14633928Y-2599513D01*
X15136966Y-2808569D01*
X15191963Y-2833554D01*
X15238952Y-2844560D01*
X15285127Y-2858626D01*
X15345246Y-2864618D01*
X15896246Y-2937719D01*
X15956512Y-2947607D01*
X16004080Y-2946002D01*
X16051648Y-2947607D01*
X16111931Y-2937716D01*
X16662919Y-2864618D01*
X16723031Y-2858626D01*
X16769200Y-2844562D01*
X16816198Y-2833554D01*
X16871209Y-2808563D01*
X17374269Y-2599499D01*
X17429959Y-2578613D01*
X17448606Y-2567048D01*
X17418023Y-2597631D01*
X17534433Y-2714041D01*
X17294344Y-2781020D01*
X17177244Y-3030048D01*
X17110977Y-3297135D01*
X17098090Y-3572017D01*
X17139078Y-3844133D01*
X17232364Y-4103023D01*
X17294344Y-4218980D01*
X17534435Y-4285960D01*
X18320395Y-3500000D01*
X18306253Y-3485858D01*
X18485858Y-3306253D01*
X18500000Y-3320395D01*
X19285960Y-2534435D01*
X19218980Y-2294344D01*
X18969952Y-2177244D01*
X18702865Y-2110977D01*
X18427983Y-2098090D01*
X18155867Y-2139078D01*
X17902295Y-2230448D01*
X17993643Y-2160524D01*
X18042784Y-2125384D01*
X18075811Y-2090192D01*
X18111080Y-2057236D01*
X18146334Y-2008160D01*
X18485128Y-1567548D01*
X18523832Y-1520291D01*
X18546222Y-1478301D01*
X18571400Y-1437902D01*
X18592983Y-1380731D01*
X18805166Y-867027D01*
X18830032Y-811975D01*
X18840936Y-764960D01*
X18854902Y-718756D01*
X18860763Y-658632D01*
X18931238Y-118431D01*
X18940997Y-59750D01*
X18939445Y-10585D01*
X18940997Y38580D01*
X18931238Y97261D01*
X18860763Y637462D01*
X18854902Y697586D01*
X18840936Y743790D01*
X18830032Y790805D01*
X18805166Y845857D01*
X18592983Y1359561D01*
X18571400Y1416732D01*
X18546222Y1457131D01*
X18523832Y1499121D01*
X18485128Y1546378D01*
X18146334Y1986990D01*
X18111080Y2036066D01*
X18075811Y2069022D01*
X18042784Y2104214D01*
X17993643Y2139354D01*
X17807324Y2281975D01*
X18030048Y2177244D01*
X18297135Y2110977D01*
X18572017Y2098090D01*
X18844133Y2139078D01*
X19103023Y2232364D01*
X19218980Y2294344D01*
X19285960Y2534435D01*
X18500000Y3320395D01*
X18485858Y3306253D01*
X18306253Y3485858D01*
X18320395Y3500000D01*
X18306253Y3514143D01*
X18485858Y3693748D01*
X18500000Y3679605D01*
X18514143Y3693748D01*
X18693748Y3514143D01*
X18679605Y3500000D01*
X19465565Y2714040D01*
X19705656Y2781020D01*
X19822756Y3030048D01*
X19889023Y3297135D01*
X19901910Y3572017D01*
X19860922Y3844133D01*
X19827229Y3937639D01*
X19888389Y3896773D01*
X20159485Y3491050D01*
X20269081Y2940072D01*
X20269080Y-2748193D01*
X20199640Y-3191351D01*
X20029937Y-3530830D01*
X19890303Y-3675571D01*
X19901910Y-3427983D01*
X19860922Y-3155867D01*
X19767636Y-2896977D01*
X19705656Y-2781020D01*
X19465565Y-2714040D01*
X18679605Y-3500000D01*
X18693748Y-3514143D01*
X18514143Y-3693748D01*
X18500000Y-3679605D01*
X17714040Y-4465565D01*
X17781020Y-4705656D01*
X18030048Y-4822756D01*
X18297135Y-4889023D01*
X18467034Y-4896988D01*
X18448009Y-4956849D01*
X11127000Y-4956849D01*
X11127000Y-4465565D01*
X12714040Y-4465565D01*
X12781020Y-4705656D01*
X13030048Y-4822756D01*
X13297135Y-4889023D01*
X13572017Y-4901910D01*
X13844133Y-4860922D01*
X14103023Y-4767636D01*
X14218980Y-4705656D01*
X14285960Y-4465565D01*
X13500000Y-3679605D01*
X12714040Y-4465565D01*
X11127000Y-4465565D01*
X11127000Y-3572017D01*
X12098090Y-3572017D01*
X12139078Y-3844133D01*
X12232364Y-4103023D01*
X12294344Y-4218980D01*
X12534435Y-4285960D01*
X13320395Y-3500000D01*
X12534435Y-2714040D01*
X12294344Y-2781020D01*
X12177244Y-3030048D01*
X12110977Y-3297135D01*
X12098090Y-3572017D01*
X11127000Y-3572017D01*
X11127000Y4277466D01*
X12503988Y4277466D01*
X12294344Y4218980D01*
G37*
%TD.AperFunction*%
%TD*%
D20*
%TO.N,+3V3*%
X-9517237Y4167871D02*
X-9111511Y3896773D01*
X-8840415Y3491050D01*
X-8730819Y2940072D01*
X-8730820Y97511D01*
X-8732559Y87277D01*
X-8730820Y25254D01*
X-8730820Y-589D01*
X-8729807Y-10874D01*
X-8729518Y-21182D01*
X-8726272Y-46762D01*
X-8720185Y-108569D01*
X-8717169Y-118513D01*
X-8460350Y-2142616D01*
X-8454602Y-2203143D01*
X-8440860Y-2249023D01*
X-8430205Y-2295708D01*
X-8405381Y-2351187D01*
X-7625585Y-4252566D01*
X-7604771Y-4308691D01*
X-7579192Y-4350272D01*
X-7556324Y-4393419D01*
X-7518495Y-4439844D01*
X-6275364Y-6076286D01*
X-6240156Y-6125799D01*
X-6205338Y-6158649D01*
X-6172757Y-6193775D01*
X-6123479Y-6229450D01*
X-4468899Y-7508678D01*
X-4421424Y-7547688D01*
X-4379808Y-7569965D01*
X-4339801Y-7595046D01*
X-4282351Y-7616908D01*
X-2350592Y-8418454D01*
X-2295208Y-8443509D01*
X-2248566Y-8454356D01*
X-2202745Y-8468286D01*
X-2142246Y-8474282D01*
X-104613Y-8741330D01*
X-45560Y-8751126D01*
X3240Y-8749566D01*
X52040Y-8751135D01*
X111089Y-8741350D01*
X2148759Y-8474670D01*
X2209274Y-8468683D01*
X2255097Y-8454761D01*
X2301742Y-8443923D01*
X2357138Y-8418875D01*
X4289052Y-7617672D01*
X4346486Y-7595828D01*
X4386485Y-7570762D01*
X4428119Y-7548485D01*
X4475633Y-7509457D01*
X6130462Y-6230515D01*
X6179695Y-6194886D01*
X6212263Y-6159787D01*
X6247108Y-6126923D01*
X6282361Y-6077366D01*
X7525769Y-4441174D01*
X7563587Y-4394779D01*
X7586456Y-4351650D01*
X7612049Y-4310062D01*
X7632881Y-4253920D01*
X8413013Y-2352698D01*
X8437846Y-2297226D01*
X8448508Y-2250548D01*
X8462260Y-2204666D01*
X8468020Y-2144124D01*
X8725210Y-120016D01*
X8728245Y-110010D01*
X8734325Y-48276D01*
X8737568Y-22755D01*
X8737861Y-12377D01*
X8738880Y-2030D01*
X8738880Y23733D01*
X8740629Y85705D01*
X8738880Y96009D01*
X8738880Y2940077D01*
X8848475Y3491050D01*
X9119572Y3896775D01*
X9525296Y4167871D01*
X10076268Y4277466D01*
X10365000Y4277466D01*
X10365000Y-5083849D01*
X10377201Y-5207731D01*
X10413336Y-5326853D01*
X10472017Y-5436636D01*
X10550987Y-5532862D01*
X10647213Y-5611832D01*
X10756996Y-5670513D01*
X10876118Y-5706648D01*
X11000000Y-5718849D01*
X18269081Y-5718849D01*
X18269080Y-33974530D01*
X18265524Y-34010635D01*
X18269080Y-34046737D01*
X18269080Y-34046739D01*
X18279715Y-34154719D01*
X18290249Y-34189444D01*
X18428400Y-34883976D01*
X18431956Y-34920086D01*
X18470154Y-35046008D01*
X18473984Y-35058634D01*
X18542234Y-35186321D01*
X18565251Y-35214367D01*
X18958676Y-35803170D01*
X18975780Y-35835169D01*
X19001534Y-35866550D01*
X19067628Y-35947086D01*
X19179545Y-36038935D01*
X19211549Y-36056041D01*
X19800351Y-36449467D01*
X19828394Y-36472481D01*
X19860386Y-36489581D01*
X19860389Y-36489583D01*
X19956079Y-36540730D01*
X20094627Y-36582758D01*
X20130733Y-36586314D01*
X20825269Y-36724466D01*
X20859995Y-36735000D01*
X20967975Y-36745635D01*
X20967977Y-36745635D01*
X21004079Y-36749191D01*
X21040181Y-36745635D01*
X23427192Y-36745635D01*
X23832572Y-36803502D01*
X24150045Y-36946502D01*
X24416021Y-37171201D01*
X24643131Y-37511940D01*
X26687223Y-41785978D01*
X26825285Y-42306222D01*
X26775891Y-42753202D01*
X26571519Y-43153778D01*
X26178473Y-43505215D01*
X23600759Y-44957980D01*
X20906539Y-46272749D01*
X18153890Y-47420518D01*
X15350438Y-48400722D01*
X12503741Y-49212811D01*
X9621462Y-49856205D01*
X6711201Y-50330339D01*
X3780600Y-50634640D01*
X837278Y-50768536D01*
X-2111111Y-50731460D01*
X-5056961Y-50522843D01*
X-7992634Y-50142120D01*
X-10910481Y-49588730D01*
X-13802947Y-48862094D01*
X-16662421Y-47961636D01*
X-19440436Y-46902356D01*
X-19798164Y-46686741D01*
X-20041687Y-46416722D01*
X-20197548Y-46088209D01*
X-20260960Y-45664271D01*
X-20260960Y-45486566D01*
X16374896Y-45486566D01*
X16610574Y-45999248D01*
X16674294Y-46106886D01*
X16757789Y-46200024D01*
X16857850Y-46275082D01*
X16970630Y-46329179D01*
X17091798Y-46360233D01*
X17216696Y-46367052D01*
X17340524Y-46349374D01*
X17458525Y-46307877D01*
X17968611Y-46066630D01*
X18045396Y-45855663D01*
X17538571Y-44768774D01*
X16451682Y-45275599D01*
X16374896Y-45486566D01*
X-20260960Y-45486566D01*
X-20260960Y-35410000D01*
X-14063676Y-35410000D01*
X-14059999Y-35447332D01*
X-14060000Y-41962677D01*
X-14063676Y-42000000D01*
X-14060000Y-42037322D01*
X-14060000Y-42037332D01*
X-14049003Y-42148985D01*
X-14013814Y-42264988D01*
X-14005546Y-42292246D01*
X-13934974Y-42424276D01*
X-13895129Y-42472826D01*
X-13840001Y-42540001D01*
X-13810998Y-42563804D01*
X-12863800Y-43511002D01*
X-12840001Y-43540001D01*
X-12749003Y-43614681D01*
X-12724276Y-43634974D01*
X-12592247Y-43705546D01*
X-12448986Y-43749003D01*
X-12300000Y-43763677D01*
X-12262667Y-43760000D01*
X15998317Y-43760000D01*
X15924918Y-43857850D01*
X15870821Y-43970630D01*
X15839767Y-44091798D01*
X15832948Y-44216696D01*
X15850626Y-44340524D01*
X15892123Y-44458525D01*
X16133370Y-44968611D01*
X16344337Y-45045396D01*
X17431226Y-44538571D01*
X17422774Y-44520445D01*
X17652977Y-44413100D01*
X17661429Y-44431226D01*
X17679555Y-44422774D01*
X17786900Y-44652977D01*
X17768774Y-44661429D01*
X18275599Y-45748318D01*
X18486566Y-45825104D01*
X18999248Y-45589426D01*
X19106886Y-45525706D01*
X19200024Y-45442211D01*
X19275082Y-45342150D01*
X19329179Y-45229370D01*
X19360233Y-45108202D01*
X19367052Y-44983304D01*
X19356280Y-44907848D01*
X19468864Y-44954482D01*
X19755762Y-45011550D01*
X20048282Y-45011550D01*
X20335180Y-44954482D01*
X20605433Y-44842540D01*
X20848654Y-44680025D01*
X21055497Y-44473182D01*
X21218012Y-44229961D01*
X21329954Y-43959708D01*
X21383446Y-43690787D01*
X21500633Y-43769089D01*
X21770886Y-43881031D01*
X22057784Y-43938099D01*
X22350304Y-43938099D01*
X22637202Y-43881031D01*
X22907455Y-43769089D01*
X23150676Y-43606574D01*
X23357519Y-43399731D01*
X23520034Y-43156510D01*
X23631976Y-42886257D01*
X23685468Y-42617338D01*
X23802654Y-42695639D01*
X24072907Y-42807581D01*
X24359805Y-42864649D01*
X24652325Y-42864649D01*
X24939223Y-42807581D01*
X25209476Y-42695639D01*
X25452697Y-42533124D01*
X25659540Y-42326281D01*
X25822055Y-42083060D01*
X25933997Y-41812807D01*
X25991065Y-41525909D01*
X25991065Y-41233389D01*
X25933997Y-40946491D01*
X25822055Y-40676238D01*
X25659540Y-40433017D01*
X25452697Y-40226174D01*
X25209476Y-40063659D01*
X24939223Y-39951717D01*
X24652325Y-39894649D01*
X24359805Y-39894649D01*
X24072907Y-39951717D01*
X23802654Y-40063659D01*
X23688402Y-40140000D01*
X14837325Y-40140000D01*
X14800000Y-40136324D01*
X14762675Y-40140000D01*
X14762667Y-40140000D01*
X14651014Y-40150997D01*
X14507753Y-40194454D01*
X14375724Y-40265026D01*
X14259999Y-40359999D01*
X14236201Y-40388997D01*
X12885199Y-41740000D01*
X12851228Y-41740000D01*
X12906011Y-41607743D01*
X12965000Y-41311184D01*
X12965000Y-41008816D01*
X12906011Y-40712257D01*
X12790299Y-40432905D01*
X12622312Y-40181495D01*
X12408505Y-39967688D01*
X12292237Y-39890000D01*
X12408505Y-39812312D01*
X12622312Y-39598505D01*
X12790299Y-39347095D01*
X12906011Y-39067743D01*
X12965000Y-38771184D01*
X12965000Y-38468816D01*
X12906011Y-38172257D01*
X12790299Y-37892905D01*
X12622312Y-37641495D01*
X12408505Y-37427688D01*
X12292237Y-37350000D01*
X12408505Y-37272312D01*
X12622312Y-37058505D01*
X12790299Y-36807095D01*
X12906011Y-36527743D01*
X12965000Y-36231184D01*
X12965000Y-35928816D01*
X12906011Y-35632257D01*
X12790299Y-35352905D01*
X12622312Y-35101495D01*
X12408505Y-34887688D01*
X12292237Y-34810000D01*
X12408505Y-34732312D01*
X12622312Y-34518505D01*
X12790299Y-34267095D01*
X12906011Y-33987743D01*
X12965000Y-33691184D01*
X12965000Y-33388816D01*
X12906011Y-33092257D01*
X12790299Y-32812905D01*
X12622312Y-32561495D01*
X12408505Y-32347688D01*
X12292237Y-32270000D01*
X12408505Y-32192312D01*
X12622312Y-31978505D01*
X12790299Y-31727095D01*
X12906011Y-31447743D01*
X12965000Y-31151184D01*
X12965000Y-30848816D01*
X12906011Y-30552257D01*
X12790299Y-30272905D01*
X12622312Y-30021495D01*
X12408505Y-29807688D01*
X12292237Y-29730000D01*
X12408505Y-29652312D01*
X12622312Y-29438505D01*
X12790299Y-29187095D01*
X12906011Y-28907743D01*
X12965000Y-28611184D01*
X12965000Y-28308816D01*
X12906011Y-28012257D01*
X12790299Y-27732905D01*
X12622312Y-27481495D01*
X12408505Y-27267688D01*
X12292237Y-27190000D01*
X12408505Y-27112312D01*
X12622312Y-26898505D01*
X12790299Y-26647095D01*
X12906011Y-26367743D01*
X12965000Y-26071184D01*
X12965000Y-25768816D01*
X12906011Y-25472257D01*
X12790299Y-25192905D01*
X12622312Y-24941495D01*
X12408505Y-24727688D01*
X12254895Y-24625049D01*
X12314475Y-24444080D01*
X11430000Y-23559605D01*
X10545525Y-24444080D01*
X10605105Y-24625049D01*
X10451495Y-24727688D01*
X10237688Y-24941495D01*
X10069701Y-25192905D01*
X9953989Y-25472257D01*
X9895000Y-25768816D01*
X9895000Y-26071184D01*
X9953989Y-26367743D01*
X10069701Y-26647095D01*
X10237688Y-26898505D01*
X10451495Y-27112312D01*
X10567763Y-27190000D01*
X10451495Y-27267688D01*
X10237688Y-27481495D01*
X10069701Y-27732905D01*
X9953989Y-28012257D01*
X9895000Y-28308816D01*
X9895000Y-28611184D01*
X9953989Y-28907743D01*
X10069701Y-29187095D01*
X10237688Y-29438505D01*
X10451495Y-29652312D01*
X10567763Y-29730000D01*
X10451495Y-29807688D01*
X10237688Y-30021495D01*
X10069701Y-30272905D01*
X9953989Y-30552257D01*
X9895000Y-30848816D01*
X9895000Y-31151184D01*
X9953989Y-31447743D01*
X10069701Y-31727095D01*
X10237688Y-31978505D01*
X10451495Y-32192312D01*
X10567763Y-32270000D01*
X10451495Y-32347688D01*
X10237688Y-32561495D01*
X10091687Y-32780000D01*
X9228715Y-32780000D01*
X9221008Y-32701746D01*
X9170472Y-32535150D01*
X9088405Y-32381614D01*
X8977962Y-32247038D01*
X8843386Y-32136595D01*
X8689850Y-32054528D01*
X8523254Y-32003992D01*
X8350000Y-31986928D01*
X7550000Y-31986928D01*
X7376746Y-32003992D01*
X7210150Y-32054528D01*
X7056614Y-32136595D01*
X6922038Y-32247038D01*
X6811595Y-32381614D01*
X6729528Y-32535150D01*
X6678992Y-32701746D01*
X6661928Y-32875000D01*
X6661928Y-34125000D01*
X6678992Y-34298254D01*
X6729528Y-34464850D01*
X6811595Y-34618386D01*
X6922038Y-34752962D01*
X7056614Y-34863405D01*
X7210150Y-34945472D01*
X7376746Y-34996008D01*
X7550000Y-35013072D01*
X8350000Y-35013072D01*
X8523254Y-34996008D01*
X8689850Y-34945472D01*
X8843386Y-34863405D01*
X8977962Y-34752962D01*
X9088405Y-34618386D01*
X9170472Y-34464850D01*
X9220478Y-34300000D01*
X10091687Y-34300000D01*
X10237688Y-34518505D01*
X10451495Y-34732312D01*
X10567763Y-34810000D01*
X10451495Y-34887688D01*
X10237688Y-35101495D01*
X10069701Y-35352905D01*
X9953989Y-35632257D01*
X9895000Y-35928816D01*
X9895000Y-36231184D01*
X9953989Y-36527743D01*
X10069701Y-36807095D01*
X10237688Y-37058505D01*
X10451495Y-37272312D01*
X10567763Y-37350000D01*
X10451495Y-37427688D01*
X10237688Y-37641495D01*
X10069701Y-37892905D01*
X9953989Y-38172257D01*
X9895000Y-38468816D01*
X9895000Y-38771184D01*
X9953989Y-39067743D01*
X10069701Y-39347095D01*
X10237688Y-39598505D01*
X10451495Y-39812312D01*
X10567763Y-39890000D01*
X10451495Y-39967688D01*
X10237688Y-40181495D01*
X10069701Y-40432905D01*
X9953989Y-40712257D01*
X9895000Y-41008816D01*
X9895000Y-41311184D01*
X9953989Y-41607743D01*
X10008772Y-41740000D01*
X-4685198Y-41740000D01*
X-9046035Y-37379163D01*
X-8943386Y-37463405D01*
X-8789850Y-37545472D01*
X-8623254Y-37596008D01*
X-8450000Y-37613072D01*
X-7650000Y-37613072D01*
X-7476746Y-37596008D01*
X-7310150Y-37545472D01*
X-7156614Y-37463405D01*
X-7022038Y-37352962D01*
X-6911595Y-37218386D01*
X-6829528Y-37064850D01*
X-6802273Y-36975000D01*
X-6238072Y-36975000D01*
X-6225812Y-37099482D01*
X-6189502Y-37219180D01*
X-6130537Y-37329494D01*
X-6051185Y-37426185D01*
X-5954494Y-37505537D01*
X-5844180Y-37564502D01*
X-5724482Y-37600812D01*
X-5600000Y-37613072D01*
X-5235750Y-37610000D01*
X-5077000Y-37451250D01*
X-5077000Y-36227000D01*
X-4823000Y-36227000D01*
X-4823000Y-37451250D01*
X-4664250Y-37610000D01*
X-4300000Y-37613072D01*
X-4175518Y-37600812D01*
X-4055820Y-37564502D01*
X-3945506Y-37505537D01*
X-3848815Y-37426185D01*
X-3769463Y-37329494D01*
X-3710498Y-37219180D01*
X-3674188Y-37099482D01*
X-3661928Y-36975000D01*
X-3665000Y-36385750D01*
X-3823750Y-36227000D01*
X-4823000Y-36227000D01*
X-5077000Y-36227000D01*
X-6076250Y-36227000D01*
X-6235000Y-36385750D01*
X-6238072Y-36975000D01*
X-6802273Y-36975000D01*
X-6778992Y-36898254D01*
X-6761928Y-36725000D01*
X-6761928Y-35475000D01*
X-6778992Y-35301746D01*
X-6829528Y-35135150D01*
X-6911595Y-34981614D01*
X-7022038Y-34847038D01*
X-7048892Y-34825000D01*
X-7022038Y-34802962D01*
X-6911595Y-34668386D01*
X-6829528Y-34514850D01*
X-6802273Y-34425000D01*
X-6238072Y-34425000D01*
X-6225812Y-34549482D01*
X-6189502Y-34669180D01*
X-6130537Y-34779494D01*
X-6093191Y-34825000D01*
X-6130537Y-34870506D01*
X-6189502Y-34980820D01*
X-6225812Y-35100518D01*
X-6238072Y-35225000D01*
X-6235000Y-35814250D01*
X-6076250Y-35973000D01*
X-5077000Y-35973000D01*
X-5077000Y-33677000D01*
X-4823000Y-33677000D01*
X-4823000Y-35973000D01*
X-3823750Y-35973000D01*
X-3665000Y-35814250D01*
X-3661928Y-35225000D01*
X-3674188Y-35100518D01*
X-3710498Y-34980820D01*
X-3769463Y-34870506D01*
X-3806809Y-34825000D01*
X-3769463Y-34779494D01*
X-3710498Y-34669180D01*
X-3674188Y-34549482D01*
X-3661928Y-34425000D01*
X-3662188Y-34375000D01*
X3561928Y-34375000D01*
X3574188Y-34499482D01*
X3610498Y-34619180D01*
X3669463Y-34729494D01*
X3748815Y-34826185D01*
X3845506Y-34905537D01*
X3955820Y-34964502D01*
X4075518Y-35000812D01*
X4200000Y-35013072D01*
X4564250Y-35010000D01*
X4723000Y-34851250D01*
X4723000Y-33627000D01*
X4977000Y-33627000D01*
X4977000Y-34851250D01*
X5135750Y-35010000D01*
X5500000Y-35013072D01*
X5624482Y-35000812D01*
X5744180Y-34964502D01*
X5854494Y-34905537D01*
X5951185Y-34826185D01*
X6030537Y-34729494D01*
X6089502Y-34619180D01*
X6125812Y-34499482D01*
X6138072Y-34375000D01*
X6135000Y-33785750D01*
X5976250Y-33627000D01*
X4977000Y-33627000D01*
X4723000Y-33627000D01*
X3723750Y-33627000D01*
X3565000Y-33785750D01*
X3561928Y-34375000D01*
X-3662188Y-34375000D01*
X-3665000Y-33835750D01*
X-3823750Y-33677000D01*
X-4823000Y-33677000D01*
X-5077000Y-33677000D01*
X-6076250Y-33677000D01*
X-6235000Y-33835750D01*
X-6238072Y-34425000D01*
X-6802273Y-34425000D01*
X-6778992Y-34348254D01*
X-6761928Y-34175000D01*
X-6761928Y-32925000D01*
X-6778992Y-32751746D01*
X-6802272Y-32675000D01*
X-6238072Y-32675000D01*
X-6235000Y-33264250D01*
X-6076250Y-33423000D01*
X-5077000Y-33423000D01*
X-5077000Y-32198750D01*
X-4823000Y-32198750D01*
X-4823000Y-33423000D01*
X-3823750Y-33423000D01*
X-3665000Y-33264250D01*
X-3661928Y-32675000D01*
X-3666852Y-32625000D01*
X3561928Y-32625000D01*
X3565000Y-33214250D01*
X3723750Y-33373000D01*
X4723000Y-33373000D01*
X4723000Y-32148750D01*
X4977000Y-32148750D01*
X4977000Y-33373000D01*
X5976250Y-33373000D01*
X6135000Y-33214250D01*
X6138072Y-32625000D01*
X6125812Y-32500518D01*
X6089502Y-32380820D01*
X6030537Y-32270506D01*
X5951185Y-32173815D01*
X5854494Y-32094463D01*
X5744180Y-32035498D01*
X5624482Y-31999188D01*
X5500000Y-31986928D01*
X5135750Y-31990000D01*
X4977000Y-32148750D01*
X4723000Y-32148750D01*
X4564250Y-31990000D01*
X4200000Y-31986928D01*
X4075518Y-31999188D01*
X3955820Y-32035498D01*
X3845506Y-32094463D01*
X3748815Y-32173815D01*
X3669463Y-32270506D01*
X3610498Y-32380820D01*
X3574188Y-32500518D01*
X3561928Y-32625000D01*
X-3666852Y-32625000D01*
X-3674188Y-32550518D01*
X-3710498Y-32430820D01*
X-3769463Y-32320506D01*
X-3848815Y-32223815D01*
X-3945506Y-32144463D01*
X-4055820Y-32085498D01*
X-4175518Y-32049188D01*
X-4300000Y-32036928D01*
X-4664250Y-32040000D01*
X-4823000Y-32198750D01*
X-5077000Y-32198750D01*
X-5235750Y-32040000D01*
X-5600000Y-32036928D01*
X-5724482Y-32049188D01*
X-5844180Y-32085498D01*
X-5954494Y-32144463D01*
X-6051185Y-32223815D01*
X-6130537Y-32320506D01*
X-6189502Y-32430820D01*
X-6225812Y-32550518D01*
X-6238072Y-32675000D01*
X-6802272Y-32675000D01*
X-6829528Y-32585150D01*
X-6911595Y-32431614D01*
X-7022038Y-32297038D01*
X-7156614Y-32186595D01*
X-7310150Y-32104528D01*
X-7476746Y-32053992D01*
X-7650000Y-32036928D01*
X-8450000Y-32036928D01*
X-8623254Y-32053992D01*
X-8789850Y-32104528D01*
X-8943386Y-32186595D01*
X-9077962Y-32297038D01*
X-9188405Y-32431614D01*
X-9270472Y-32585150D01*
X-9321008Y-32751746D01*
X-9324776Y-32790000D01*
X-10085006Y-32790000D01*
X-10237688Y-32561495D01*
X-10451495Y-32347688D01*
X-10567763Y-32270000D01*
X-10451495Y-32192312D01*
X-10237688Y-31978505D01*
X-10069701Y-31727095D01*
X-9953989Y-31447743D01*
X-9895000Y-31151184D01*
X-9895000Y-30848816D01*
X-9953989Y-30552257D01*
X-10069701Y-30272905D01*
X-10237688Y-30021495D01*
X-10451495Y-29807688D01*
X-10567763Y-29730000D01*
X-10451495Y-29652312D01*
X-10237688Y-29438505D01*
X-10069701Y-29187095D01*
X-9953989Y-28907743D01*
X-9895000Y-28611184D01*
X-9895000Y-28308816D01*
X-9953989Y-28012257D01*
X-10069701Y-27732905D01*
X-10237688Y-27481495D01*
X-10451495Y-27267688D01*
X-10567763Y-27190000D01*
X-10451495Y-27112312D01*
X-10237688Y-26898505D01*
X-10069701Y-26647095D01*
X-9953989Y-26367743D01*
X-9895000Y-26071184D01*
X-9895000Y-25768816D01*
X-9953989Y-25472257D01*
X-10069701Y-25192905D01*
X-10237688Y-24941495D01*
X-10451495Y-24727688D01*
X-10567763Y-24650000D01*
X-10451495Y-24572312D01*
X-10237688Y-24358505D01*
X-10069701Y-24107095D01*
X-9953989Y-23827743D01*
X-9895000Y-23531184D01*
X-9895000Y-23446553D01*
X9889009Y-23446553D01*
X9931603Y-23745907D01*
X10031778Y-24031199D01*
X10111739Y-24180792D01*
X10365920Y-24264475D01*
X11250395Y-23380000D01*
X11609605Y-23380000D01*
X12494080Y-24264475D01*
X12748261Y-24180792D01*
X12879158Y-23908225D01*
X12954365Y-23615358D01*
X12970991Y-23313447D01*
X12928397Y-23014093D01*
X12828222Y-22728801D01*
X12748261Y-22579208D01*
X12494080Y-22495525D01*
X11609605Y-23380000D01*
X11250395Y-23380000D01*
X10365920Y-22495525D01*
X10111739Y-22579208D01*
X9980842Y-22851775D01*
X9905635Y-23144642D01*
X9889009Y-23446553D01*
X-9895000Y-23446553D01*
X-9895000Y-23228816D01*
X-9953989Y-22932257D01*
X-10069701Y-22652905D01*
X-10237688Y-22401495D01*
X-10323263Y-22315920D01*
X10545525Y-22315920D01*
X11430000Y-23200395D01*
X12314475Y-22315920D01*
X12230792Y-22061739D01*
X11958225Y-21930842D01*
X11665358Y-21855635D01*
X11363447Y-21839009D01*
X11064093Y-21881603D01*
X10778801Y-21981778D01*
X10629208Y-22061739D01*
X10545525Y-22315920D01*
X-10323263Y-22315920D01*
X-10451495Y-22187688D01*
X-10702905Y-22019701D01*
X-10982257Y-21903989D01*
X-11278816Y-21845000D01*
X-11581184Y-21845000D01*
X-11877743Y-21903989D01*
X-12157095Y-22019701D01*
X-12408505Y-22187688D01*
X-12622312Y-22401495D01*
X-12790299Y-22652905D01*
X-12906011Y-22932257D01*
X-12965000Y-23228816D01*
X-12965000Y-23531184D01*
X-12906011Y-23827743D01*
X-12790299Y-24107095D01*
X-12622312Y-24358505D01*
X-12408505Y-24572312D01*
X-12292237Y-24650000D01*
X-12408505Y-24727688D01*
X-12622312Y-24941495D01*
X-12790299Y-25192905D01*
X-12906011Y-25472257D01*
X-12965000Y-25768816D01*
X-12965000Y-26071184D01*
X-12906011Y-26367743D01*
X-12790299Y-26647095D01*
X-12622312Y-26898505D01*
X-12408505Y-27112312D01*
X-12292237Y-27190000D01*
X-12408505Y-27267688D01*
X-12622312Y-27481495D01*
X-12790299Y-27732905D01*
X-12906011Y-28012257D01*
X-12965000Y-28308816D01*
X-12965000Y-28611184D01*
X-12906011Y-28907743D01*
X-12790299Y-29187095D01*
X-12622312Y-29438505D01*
X-12408505Y-29652312D01*
X-12292237Y-29730000D01*
X-12408505Y-29807688D01*
X-12622312Y-30021495D01*
X-12790299Y-30272905D01*
X-12906011Y-30552257D01*
X-12965000Y-30848816D01*
X-12965000Y-31151184D01*
X-12906011Y-31447743D01*
X-12790299Y-31727095D01*
X-12622312Y-31978505D01*
X-12408505Y-32192312D01*
X-12292237Y-32270000D01*
X-12408505Y-32347688D01*
X-12622312Y-32561495D01*
X-12790299Y-32812905D01*
X-12906011Y-33092257D01*
X-12965000Y-33388816D01*
X-12965000Y-33691184D01*
X-12913731Y-33948930D01*
X-13811002Y-34846201D01*
X-13840000Y-34869999D01*
X-13863798Y-34898997D01*
X-13863799Y-34898998D01*
X-13934974Y-34985724D01*
X-14005546Y-35117754D01*
X-14026345Y-35186321D01*
X-14049002Y-35261014D01*
X-14052370Y-35295206D01*
X-14063676Y-35410000D01*
X-20260960Y-35410000D01*
X-20260960Y-30853740D01*
X-20025000Y-30853740D01*
X-20025000Y-31146260D01*
X-19967932Y-31433158D01*
X-19855990Y-31703411D01*
X-19693475Y-31946632D01*
X-19486632Y-32153475D01*
X-19243411Y-32315990D01*
X-18973158Y-32427932D01*
X-18686260Y-32485000D01*
X-18393740Y-32485000D01*
X-18106842Y-32427932D01*
X-17836589Y-32315990D01*
X-17593368Y-32153475D01*
X-17461513Y-32021620D01*
X-17439502Y-32094180D01*
X-17380537Y-32204494D01*
X-17301185Y-32301185D01*
X-17204494Y-32380537D01*
X-17094180Y-32439502D01*
X-16974482Y-32475812D01*
X-16850000Y-32488072D01*
X-15150000Y-32488072D01*
X-15025518Y-32475812D01*
X-14905820Y-32439502D01*
X-14795506Y-32380537D01*
X-14698815Y-32301185D01*
X-14619463Y-32204494D01*
X-14560498Y-32094180D01*
X-14524188Y-31974482D01*
X-14511928Y-31850000D01*
X-14511928Y-30150000D01*
X-14524188Y-30025518D01*
X-14560498Y-29905820D01*
X-14619463Y-29795506D01*
X-14698815Y-29698815D01*
X-14795506Y-29619463D01*
X-14905820Y-29560498D01*
X-15025518Y-29524188D01*
X-15150000Y-29511928D01*
X-16850000Y-29511928D01*
X-16974482Y-29524188D01*
X-17094180Y-29560498D01*
X-17204494Y-29619463D01*
X-17301185Y-29698815D01*
X-17380537Y-29795506D01*
X-17439502Y-29905820D01*
X-17461513Y-29978380D01*
X-17593368Y-29846525D01*
X-17836589Y-29684010D01*
X-18106842Y-29572068D01*
X-18393740Y-29515000D01*
X-18686260Y-29515000D01*
X-18973158Y-29572068D01*
X-19243411Y-29684010D01*
X-19486632Y-29846525D01*
X-19693475Y-30053368D01*
X-19855990Y-30296589D01*
X-19967932Y-30566842D01*
X-20025000Y-30853740D01*
X-20260960Y-30853740D01*
X-20260960Y-29044765D01*
X-20191524Y-28601616D01*
X-20021831Y-28262144D01*
X-19758338Y-27989002D01*
X-19359376Y-27773501D01*
X-19340572Y-27766572D01*
X-19295813Y-27739167D01*
X-19281552Y-27731464D01*
X-19265029Y-27720319D01*
X-19248037Y-27709915D01*
X-19235114Y-27700140D01*
X-19191600Y-27670789D01*
X-19177490Y-27656555D01*
X-18757113Y-27338591D01*
X-18718523Y-27313538D01*
X-18673615Y-27269802D01*
X-18627578Y-27227279D01*
X-18621819Y-27219359D01*
X-18614801Y-27212524D01*
X-18579290Y-27160870D01*
X-18542433Y-27110181D01*
X-18538329Y-27101287D01*
X-18532780Y-27093216D01*
X-18508037Y-27035647D01*
X-18481768Y-26978722D01*
X-18471008Y-26933980D01*
X-18315934Y-26446092D01*
X-18313623Y-26441768D01*
X-18294026Y-26377167D01*
X-18284555Y-26347368D01*
X-18283541Y-26342601D01*
X-18271595Y-26303220D01*
X-18268516Y-26271960D01*
X-18261982Y-26241239D01*
X-18261438Y-26200093D01*
X-18260960Y-26195240D01*
X-18260960Y-26163938D01*
X-18260068Y-26096470D01*
X-18260960Y-26091654D01*
X-18260960Y-10650000D01*
X-16988072Y-10650000D01*
X-16988072Y-13150000D01*
X-16975812Y-13274482D01*
X-16939502Y-13394180D01*
X-16880537Y-13504494D01*
X-16801185Y-13601185D01*
X-16704494Y-13680537D01*
X-16594180Y-13739502D01*
X-16474482Y-13775812D01*
X-16350000Y-13788072D01*
X-14850000Y-13788072D01*
X-14725518Y-13775812D01*
X-14605820Y-13739502D01*
X-14495506Y-13680537D01*
X-14398815Y-13601185D01*
X-14319463Y-13504494D01*
X-14260498Y-13394180D01*
X-14224188Y-13274482D01*
X-14214527Y-13176392D01*
X-14044080Y-13384081D01*
X-13833187Y-13557157D01*
X-13592580Y-13685764D01*
X-13331506Y-13764960D01*
X-13060000Y-13791701D01*
X-12788493Y-13764960D01*
X-12527419Y-13685764D01*
X-12286812Y-13557157D01*
X-12075919Y-13384081D01*
X-11902843Y-13173188D01*
X-11790000Y-12962073D01*
X-11677157Y-13173188D01*
X-11504080Y-13384081D01*
X-11293187Y-13557157D01*
X-11052580Y-13685764D01*
X-10791506Y-13764960D01*
X-10520000Y-13791701D01*
X-10248493Y-13764960D01*
X-9987419Y-13685764D01*
X-9746812Y-13557157D01*
X-9535919Y-13384081D01*
X-9362843Y-13173188D01*
X-9234236Y-12932581D01*
X-9155040Y-12671507D01*
X-9135000Y-12468037D01*
X-9135000Y-11331963D01*
X-9155040Y-11128493D01*
X-9224352Y-10900000D01*
X10061928Y-10900000D01*
X10061928Y-12500000D01*
X10074188Y-12624482D01*
X10110498Y-12744180D01*
X10169463Y-12854494D01*
X10248815Y-12951185D01*
X10345506Y-13030537D01*
X10455820Y-13089502D01*
X10575518Y-13125812D01*
X10700000Y-13138072D01*
X12300000Y-13138072D01*
X12424482Y-13125812D01*
X12544180Y-13089502D01*
X12654494Y-13030537D01*
X12751185Y-12951185D01*
X12830537Y-12854494D01*
X12889502Y-12744180D01*
X12925812Y-12624482D01*
X12938072Y-12500000D01*
X12938072Y-10900000D01*
X12925812Y-10775518D01*
X12889502Y-10655820D01*
X12830537Y-10545506D01*
X12751185Y-10448815D01*
X12654494Y-10369463D01*
X12544180Y-10310498D01*
X12448057Y-10281339D01*
X12614637Y-10114759D01*
X12771680Y-9879727D01*
X12879853Y-9618574D01*
X12935000Y-9341335D01*
X12935000Y-9058665D01*
X12879853Y-8781426D01*
X12771680Y-8520273D01*
X12614637Y-8285241D01*
X12414759Y-8085363D01*
X12179727Y-7928320D01*
X11918574Y-7820147D01*
X11641335Y-7765000D01*
X11358665Y-7765000D01*
X11081426Y-7820147D01*
X10820273Y-7928320D01*
X10585241Y-8085363D01*
X10385363Y-8285241D01*
X10228320Y-8520273D01*
X10120147Y-8781426D01*
X10065000Y-9058665D01*
X10065000Y-9341335D01*
X10120147Y-9618574D01*
X10228320Y-9879727D01*
X10385363Y-10114759D01*
X10551943Y-10281339D01*
X10455820Y-10310498D01*
X10345506Y-10369463D01*
X10248815Y-10448815D01*
X10169463Y-10545506D01*
X10110498Y-10655820D01*
X10074188Y-10775518D01*
X10061928Y-10900000D01*
X-9224352Y-10900000D01*
X-9234236Y-10867419D01*
X-9362843Y-10626812D01*
X-9535920Y-10415919D01*
X-9746813Y-10242843D01*
X-9987420Y-10114236D01*
X-10248494Y-10035040D01*
X-10520000Y-10008299D01*
X-10791507Y-10035040D01*
X-11052581Y-10114236D01*
X-11293188Y-10242843D01*
X-11504081Y-10415920D01*
X-11677157Y-10626813D01*
X-11790000Y-10837927D01*
X-11902843Y-10626812D01*
X-12075920Y-10415919D01*
X-12286813Y-10242843D01*
X-12527420Y-10114236D01*
X-12788494Y-10035040D01*
X-13060000Y-10008299D01*
X-13331507Y-10035040D01*
X-13592581Y-10114236D01*
X-13833188Y-10242843D01*
X-14044081Y-10415920D01*
X-14214527Y-10623609D01*
X-14224188Y-10525518D01*
X-14260498Y-10405820D01*
X-14319463Y-10295506D01*
X-14398815Y-10198815D01*
X-14495506Y-10119463D01*
X-14605820Y-10060498D01*
X-14725518Y-10024188D01*
X-14850000Y-10011928D01*
X-16350000Y-10011928D01*
X-16474482Y-10024188D01*
X-16594180Y-10060498D01*
X-16704494Y-10119463D01*
X-16801185Y-10198815D01*
X-16880537Y-10295506D01*
X-16939502Y-10405820D01*
X-16975812Y-10525518D01*
X-16988072Y-10650000D01*
X-18260960Y-10650000D01*
X-18260960Y-5883411D01*
X-18260067Y-5878589D01*
X-18260960Y-5811150D01*
X-18260960Y-5779830D01*
X-18261439Y-5774965D01*
X-18261984Y-5733819D01*
X-18268516Y-5703108D01*
X-18271595Y-5671850D01*
X-18282773Y-5635000D01*
X-11000000Y-5635000D01*
X-10876118Y-5622799D01*
X-10756996Y-5586664D01*
X-10647213Y-5527983D01*
X-10550987Y-5449013D01*
X-10472017Y-5352787D01*
X-10413336Y-5243004D01*
X-10377201Y-5123882D01*
X-10365000Y-5000000D01*
X-10365000Y4277466D01*
X-10068208Y4277466D01*
X-9517237Y4167871D01*
%TA.AperFunction,Conductor*%
D21*
G36*
X-9517237Y4167871D02*
G01*
X-9111511Y3896773D01*
X-8840415Y3491050D01*
X-8730819Y2940072D01*
X-8730820Y97511D01*
X-8732559Y87277D01*
X-8730820Y25254D01*
X-8730820Y-589D01*
X-8729807Y-10874D01*
X-8729518Y-21182D01*
X-8726272Y-46762D01*
X-8720185Y-108569D01*
X-8717169Y-118513D01*
X-8460350Y-2142616D01*
X-8454602Y-2203143D01*
X-8440860Y-2249023D01*
X-8430205Y-2295708D01*
X-8405381Y-2351187D01*
X-7625585Y-4252566D01*
X-7604771Y-4308691D01*
X-7579192Y-4350272D01*
X-7556324Y-4393419D01*
X-7518495Y-4439844D01*
X-6275364Y-6076286D01*
X-6240156Y-6125799D01*
X-6205338Y-6158649D01*
X-6172757Y-6193775D01*
X-6123479Y-6229450D01*
X-4468899Y-7508678D01*
X-4421424Y-7547688D01*
X-4379808Y-7569965D01*
X-4339801Y-7595046D01*
X-4282351Y-7616908D01*
X-2350592Y-8418454D01*
X-2295208Y-8443509D01*
X-2248566Y-8454356D01*
X-2202745Y-8468286D01*
X-2142246Y-8474282D01*
X-104613Y-8741330D01*
X-45560Y-8751126D01*
X3240Y-8749566D01*
X52040Y-8751135D01*
X111089Y-8741350D01*
X2148759Y-8474670D01*
X2209274Y-8468683D01*
X2255097Y-8454761D01*
X2301742Y-8443923D01*
X2357138Y-8418875D01*
X4289052Y-7617672D01*
X4346486Y-7595828D01*
X4386485Y-7570762D01*
X4428119Y-7548485D01*
X4475633Y-7509457D01*
X6130462Y-6230515D01*
X6179695Y-6194886D01*
X6212263Y-6159787D01*
X6247108Y-6126923D01*
X6282361Y-6077366D01*
X7525769Y-4441174D01*
X7563587Y-4394779D01*
X7586456Y-4351650D01*
X7612049Y-4310062D01*
X7632881Y-4253920D01*
X8413013Y-2352698D01*
X8437846Y-2297226D01*
X8448508Y-2250548D01*
X8462260Y-2204666D01*
X8468020Y-2144124D01*
X8725210Y-120016D01*
X8728245Y-110010D01*
X8734325Y-48276D01*
X8737568Y-22755D01*
X8737861Y-12377D01*
X8738880Y-2030D01*
X8738880Y23733D01*
X8740629Y85705D01*
X8738880Y96009D01*
X8738880Y2940077D01*
X8848475Y3491050D01*
X9119572Y3896775D01*
X9525296Y4167871D01*
X10076268Y4277466D01*
X10365000Y4277466D01*
X10365000Y-5083849D01*
X10377201Y-5207731D01*
X10413336Y-5326853D01*
X10472017Y-5436636D01*
X10550987Y-5532862D01*
X10647213Y-5611832D01*
X10756996Y-5670513D01*
X10876118Y-5706648D01*
X11000000Y-5718849D01*
X18269081Y-5718849D01*
X18269080Y-33974530D01*
X18265524Y-34010635D01*
X18269080Y-34046737D01*
X18269080Y-34046739D01*
X18279715Y-34154719D01*
X18290249Y-34189444D01*
X18428400Y-34883976D01*
X18431956Y-34920086D01*
X18470154Y-35046008D01*
X18473984Y-35058634D01*
X18542234Y-35186321D01*
X18565251Y-35214367D01*
X18958676Y-35803170D01*
X18975780Y-35835169D01*
X19001534Y-35866550D01*
X19067628Y-35947086D01*
X19179545Y-36038935D01*
X19211549Y-36056041D01*
X19800351Y-36449467D01*
X19828394Y-36472481D01*
X19860386Y-36489581D01*
X19860389Y-36489583D01*
X19956079Y-36540730D01*
X20094627Y-36582758D01*
X20130733Y-36586314D01*
X20825269Y-36724466D01*
X20859995Y-36735000D01*
X20967975Y-36745635D01*
X20967977Y-36745635D01*
X21004079Y-36749191D01*
X21040181Y-36745635D01*
X23427192Y-36745635D01*
X23832572Y-36803502D01*
X24150045Y-36946502D01*
X24416021Y-37171201D01*
X24643131Y-37511940D01*
X26687223Y-41785978D01*
X26825285Y-42306222D01*
X26775891Y-42753202D01*
X26571519Y-43153778D01*
X26178473Y-43505215D01*
X23600759Y-44957980D01*
X20906539Y-46272749D01*
X18153890Y-47420518D01*
X15350438Y-48400722D01*
X12503741Y-49212811D01*
X9621462Y-49856205D01*
X6711201Y-50330339D01*
X3780600Y-50634640D01*
X837278Y-50768536D01*
X-2111111Y-50731460D01*
X-5056961Y-50522843D01*
X-7992634Y-50142120D01*
X-10910481Y-49588730D01*
X-13802947Y-48862094D01*
X-16662421Y-47961636D01*
X-19440436Y-46902356D01*
X-19798164Y-46686741D01*
X-20041687Y-46416722D01*
X-20197548Y-46088209D01*
X-20260960Y-45664271D01*
X-20260960Y-45486566D01*
X16374896Y-45486566D01*
X16610574Y-45999248D01*
X16674294Y-46106886D01*
X16757789Y-46200024D01*
X16857850Y-46275082D01*
X16970630Y-46329179D01*
X17091798Y-46360233D01*
X17216696Y-46367052D01*
X17340524Y-46349374D01*
X17458525Y-46307877D01*
X17968611Y-46066630D01*
X18045396Y-45855663D01*
X17538571Y-44768774D01*
X16451682Y-45275599D01*
X16374896Y-45486566D01*
X-20260960Y-45486566D01*
X-20260960Y-35410000D01*
X-14063676Y-35410000D01*
X-14059999Y-35447332D01*
X-14060000Y-41962677D01*
X-14063676Y-42000000D01*
X-14060000Y-42037322D01*
X-14060000Y-42037332D01*
X-14049003Y-42148985D01*
X-14013814Y-42264988D01*
X-14005546Y-42292246D01*
X-13934974Y-42424276D01*
X-13895129Y-42472826D01*
X-13840001Y-42540001D01*
X-13810998Y-42563804D01*
X-12863800Y-43511002D01*
X-12840001Y-43540001D01*
X-12749003Y-43614681D01*
X-12724276Y-43634974D01*
X-12592247Y-43705546D01*
X-12448986Y-43749003D01*
X-12300000Y-43763677D01*
X-12262667Y-43760000D01*
X15998317Y-43760000D01*
X15924918Y-43857850D01*
X15870821Y-43970630D01*
X15839767Y-44091798D01*
X15832948Y-44216696D01*
X15850626Y-44340524D01*
X15892123Y-44458525D01*
X16133370Y-44968611D01*
X16344337Y-45045396D01*
X17431226Y-44538571D01*
X17422774Y-44520445D01*
X17652977Y-44413100D01*
X17661429Y-44431226D01*
X17679555Y-44422774D01*
X17786900Y-44652977D01*
X17768774Y-44661429D01*
X18275599Y-45748318D01*
X18486566Y-45825104D01*
X18999248Y-45589426D01*
X19106886Y-45525706D01*
X19200024Y-45442211D01*
X19275082Y-45342150D01*
X19329179Y-45229370D01*
X19360233Y-45108202D01*
X19367052Y-44983304D01*
X19356280Y-44907848D01*
X19468864Y-44954482D01*
X19755762Y-45011550D01*
X20048282Y-45011550D01*
X20335180Y-44954482D01*
X20605433Y-44842540D01*
X20848654Y-44680025D01*
X21055497Y-44473182D01*
X21218012Y-44229961D01*
X21329954Y-43959708D01*
X21383446Y-43690787D01*
X21500633Y-43769089D01*
X21770886Y-43881031D01*
X22057784Y-43938099D01*
X22350304Y-43938099D01*
X22637202Y-43881031D01*
X22907455Y-43769089D01*
X23150676Y-43606574D01*
X23357519Y-43399731D01*
X23520034Y-43156510D01*
X23631976Y-42886257D01*
X23685468Y-42617338D01*
X23802654Y-42695639D01*
X24072907Y-42807581D01*
X24359805Y-42864649D01*
X24652325Y-42864649D01*
X24939223Y-42807581D01*
X25209476Y-42695639D01*
X25452697Y-42533124D01*
X25659540Y-42326281D01*
X25822055Y-42083060D01*
X25933997Y-41812807D01*
X25991065Y-41525909D01*
X25991065Y-41233389D01*
X25933997Y-40946491D01*
X25822055Y-40676238D01*
X25659540Y-40433017D01*
X25452697Y-40226174D01*
X25209476Y-40063659D01*
X24939223Y-39951717D01*
X24652325Y-39894649D01*
X24359805Y-39894649D01*
X24072907Y-39951717D01*
X23802654Y-40063659D01*
X23688402Y-40140000D01*
X14837325Y-40140000D01*
X14800000Y-40136324D01*
X14762675Y-40140000D01*
X14762667Y-40140000D01*
X14651014Y-40150997D01*
X14507753Y-40194454D01*
X14375724Y-40265026D01*
X14259999Y-40359999D01*
X14236201Y-40388997D01*
X12885199Y-41740000D01*
X12851228Y-41740000D01*
X12906011Y-41607743D01*
X12965000Y-41311184D01*
X12965000Y-41008816D01*
X12906011Y-40712257D01*
X12790299Y-40432905D01*
X12622312Y-40181495D01*
X12408505Y-39967688D01*
X12292237Y-39890000D01*
X12408505Y-39812312D01*
X12622312Y-39598505D01*
X12790299Y-39347095D01*
X12906011Y-39067743D01*
X12965000Y-38771184D01*
X12965000Y-38468816D01*
X12906011Y-38172257D01*
X12790299Y-37892905D01*
X12622312Y-37641495D01*
X12408505Y-37427688D01*
X12292237Y-37350000D01*
X12408505Y-37272312D01*
X12622312Y-37058505D01*
X12790299Y-36807095D01*
X12906011Y-36527743D01*
X12965000Y-36231184D01*
X12965000Y-35928816D01*
X12906011Y-35632257D01*
X12790299Y-35352905D01*
X12622312Y-35101495D01*
X12408505Y-34887688D01*
X12292237Y-34810000D01*
X12408505Y-34732312D01*
X12622312Y-34518505D01*
X12790299Y-34267095D01*
X12906011Y-33987743D01*
X12965000Y-33691184D01*
X12965000Y-33388816D01*
X12906011Y-33092257D01*
X12790299Y-32812905D01*
X12622312Y-32561495D01*
X12408505Y-32347688D01*
X12292237Y-32270000D01*
X12408505Y-32192312D01*
X12622312Y-31978505D01*
X12790299Y-31727095D01*
X12906011Y-31447743D01*
X12965000Y-31151184D01*
X12965000Y-30848816D01*
X12906011Y-30552257D01*
X12790299Y-30272905D01*
X12622312Y-30021495D01*
X12408505Y-29807688D01*
X12292237Y-29730000D01*
X12408505Y-29652312D01*
X12622312Y-29438505D01*
X12790299Y-29187095D01*
X12906011Y-28907743D01*
X12965000Y-28611184D01*
X12965000Y-28308816D01*
X12906011Y-28012257D01*
X12790299Y-27732905D01*
X12622312Y-27481495D01*
X12408505Y-27267688D01*
X12292237Y-27190000D01*
X12408505Y-27112312D01*
X12622312Y-26898505D01*
X12790299Y-26647095D01*
X12906011Y-26367743D01*
X12965000Y-26071184D01*
X12965000Y-25768816D01*
X12906011Y-25472257D01*
X12790299Y-25192905D01*
X12622312Y-24941495D01*
X12408505Y-24727688D01*
X12254895Y-24625049D01*
X12314475Y-24444080D01*
X11430000Y-23559605D01*
X10545525Y-24444080D01*
X10605105Y-24625049D01*
X10451495Y-24727688D01*
X10237688Y-24941495D01*
X10069701Y-25192905D01*
X9953989Y-25472257D01*
X9895000Y-25768816D01*
X9895000Y-26071184D01*
X9953989Y-26367743D01*
X10069701Y-26647095D01*
X10237688Y-26898505D01*
X10451495Y-27112312D01*
X10567763Y-27190000D01*
X10451495Y-27267688D01*
X10237688Y-27481495D01*
X10069701Y-27732905D01*
X9953989Y-28012257D01*
X9895000Y-28308816D01*
X9895000Y-28611184D01*
X9953989Y-28907743D01*
X10069701Y-29187095D01*
X10237688Y-29438505D01*
X10451495Y-29652312D01*
X10567763Y-29730000D01*
X10451495Y-29807688D01*
X10237688Y-30021495D01*
X10069701Y-30272905D01*
X9953989Y-30552257D01*
X9895000Y-30848816D01*
X9895000Y-31151184D01*
X9953989Y-31447743D01*
X10069701Y-31727095D01*
X10237688Y-31978505D01*
X10451495Y-32192312D01*
X10567763Y-32270000D01*
X10451495Y-32347688D01*
X10237688Y-32561495D01*
X10091687Y-32780000D01*
X9228715Y-32780000D01*
X9221008Y-32701746D01*
X9170472Y-32535150D01*
X9088405Y-32381614D01*
X8977962Y-32247038D01*
X8843386Y-32136595D01*
X8689850Y-32054528D01*
X8523254Y-32003992D01*
X8350000Y-31986928D01*
X7550000Y-31986928D01*
X7376746Y-32003992D01*
X7210150Y-32054528D01*
X7056614Y-32136595D01*
X6922038Y-32247038D01*
X6811595Y-32381614D01*
X6729528Y-32535150D01*
X6678992Y-32701746D01*
X6661928Y-32875000D01*
X6661928Y-34125000D01*
X6678992Y-34298254D01*
X6729528Y-34464850D01*
X6811595Y-34618386D01*
X6922038Y-34752962D01*
X7056614Y-34863405D01*
X7210150Y-34945472D01*
X7376746Y-34996008D01*
X7550000Y-35013072D01*
X8350000Y-35013072D01*
X8523254Y-34996008D01*
X8689850Y-34945472D01*
X8843386Y-34863405D01*
X8977962Y-34752962D01*
X9088405Y-34618386D01*
X9170472Y-34464850D01*
X9220478Y-34300000D01*
X10091687Y-34300000D01*
X10237688Y-34518505D01*
X10451495Y-34732312D01*
X10567763Y-34810000D01*
X10451495Y-34887688D01*
X10237688Y-35101495D01*
X10069701Y-35352905D01*
X9953989Y-35632257D01*
X9895000Y-35928816D01*
X9895000Y-36231184D01*
X9953989Y-36527743D01*
X10069701Y-36807095D01*
X10237688Y-37058505D01*
X10451495Y-37272312D01*
X10567763Y-37350000D01*
X10451495Y-37427688D01*
X10237688Y-37641495D01*
X10069701Y-37892905D01*
X9953989Y-38172257D01*
X9895000Y-38468816D01*
X9895000Y-38771184D01*
X9953989Y-39067743D01*
X10069701Y-39347095D01*
X10237688Y-39598505D01*
X10451495Y-39812312D01*
X10567763Y-39890000D01*
X10451495Y-39967688D01*
X10237688Y-40181495D01*
X10069701Y-40432905D01*
X9953989Y-40712257D01*
X9895000Y-41008816D01*
X9895000Y-41311184D01*
X9953989Y-41607743D01*
X10008772Y-41740000D01*
X-4685198Y-41740000D01*
X-9046035Y-37379163D01*
X-8943386Y-37463405D01*
X-8789850Y-37545472D01*
X-8623254Y-37596008D01*
X-8450000Y-37613072D01*
X-7650000Y-37613072D01*
X-7476746Y-37596008D01*
X-7310150Y-37545472D01*
X-7156614Y-37463405D01*
X-7022038Y-37352962D01*
X-6911595Y-37218386D01*
X-6829528Y-37064850D01*
X-6802273Y-36975000D01*
X-6238072Y-36975000D01*
X-6225812Y-37099482D01*
X-6189502Y-37219180D01*
X-6130537Y-37329494D01*
X-6051185Y-37426185D01*
X-5954494Y-37505537D01*
X-5844180Y-37564502D01*
X-5724482Y-37600812D01*
X-5600000Y-37613072D01*
X-5235750Y-37610000D01*
X-5077000Y-37451250D01*
X-5077000Y-36227000D01*
X-4823000Y-36227000D01*
X-4823000Y-37451250D01*
X-4664250Y-37610000D01*
X-4300000Y-37613072D01*
X-4175518Y-37600812D01*
X-4055820Y-37564502D01*
X-3945506Y-37505537D01*
X-3848815Y-37426185D01*
X-3769463Y-37329494D01*
X-3710498Y-37219180D01*
X-3674188Y-37099482D01*
X-3661928Y-36975000D01*
X-3665000Y-36385750D01*
X-3823750Y-36227000D01*
X-4823000Y-36227000D01*
X-5077000Y-36227000D01*
X-6076250Y-36227000D01*
X-6235000Y-36385750D01*
X-6238072Y-36975000D01*
X-6802273Y-36975000D01*
X-6778992Y-36898254D01*
X-6761928Y-36725000D01*
X-6761928Y-35475000D01*
X-6778992Y-35301746D01*
X-6829528Y-35135150D01*
X-6911595Y-34981614D01*
X-7022038Y-34847038D01*
X-7048892Y-34825000D01*
X-7022038Y-34802962D01*
X-6911595Y-34668386D01*
X-6829528Y-34514850D01*
X-6802273Y-34425000D01*
X-6238072Y-34425000D01*
X-6225812Y-34549482D01*
X-6189502Y-34669180D01*
X-6130537Y-34779494D01*
X-6093191Y-34825000D01*
X-6130537Y-34870506D01*
X-6189502Y-34980820D01*
X-6225812Y-35100518D01*
X-6238072Y-35225000D01*
X-6235000Y-35814250D01*
X-6076250Y-35973000D01*
X-5077000Y-35973000D01*
X-5077000Y-33677000D01*
X-4823000Y-33677000D01*
X-4823000Y-35973000D01*
X-3823750Y-35973000D01*
X-3665000Y-35814250D01*
X-3661928Y-35225000D01*
X-3674188Y-35100518D01*
X-3710498Y-34980820D01*
X-3769463Y-34870506D01*
X-3806809Y-34825000D01*
X-3769463Y-34779494D01*
X-3710498Y-34669180D01*
X-3674188Y-34549482D01*
X-3661928Y-34425000D01*
X-3662188Y-34375000D01*
X3561928Y-34375000D01*
X3574188Y-34499482D01*
X3610498Y-34619180D01*
X3669463Y-34729494D01*
X3748815Y-34826185D01*
X3845506Y-34905537D01*
X3955820Y-34964502D01*
X4075518Y-35000812D01*
X4200000Y-35013072D01*
X4564250Y-35010000D01*
X4723000Y-34851250D01*
X4723000Y-33627000D01*
X4977000Y-33627000D01*
X4977000Y-34851250D01*
X5135750Y-35010000D01*
X5500000Y-35013072D01*
X5624482Y-35000812D01*
X5744180Y-34964502D01*
X5854494Y-34905537D01*
X5951185Y-34826185D01*
X6030537Y-34729494D01*
X6089502Y-34619180D01*
X6125812Y-34499482D01*
X6138072Y-34375000D01*
X6135000Y-33785750D01*
X5976250Y-33627000D01*
X4977000Y-33627000D01*
X4723000Y-33627000D01*
X3723750Y-33627000D01*
X3565000Y-33785750D01*
X3561928Y-34375000D01*
X-3662188Y-34375000D01*
X-3665000Y-33835750D01*
X-3823750Y-33677000D01*
X-4823000Y-33677000D01*
X-5077000Y-33677000D01*
X-6076250Y-33677000D01*
X-6235000Y-33835750D01*
X-6238072Y-34425000D01*
X-6802273Y-34425000D01*
X-6778992Y-34348254D01*
X-6761928Y-34175000D01*
X-6761928Y-32925000D01*
X-6778992Y-32751746D01*
X-6802272Y-32675000D01*
X-6238072Y-32675000D01*
X-6235000Y-33264250D01*
X-6076250Y-33423000D01*
X-5077000Y-33423000D01*
X-5077000Y-32198750D01*
X-4823000Y-32198750D01*
X-4823000Y-33423000D01*
X-3823750Y-33423000D01*
X-3665000Y-33264250D01*
X-3661928Y-32675000D01*
X-3666852Y-32625000D01*
X3561928Y-32625000D01*
X3565000Y-33214250D01*
X3723750Y-33373000D01*
X4723000Y-33373000D01*
X4723000Y-32148750D01*
X4977000Y-32148750D01*
X4977000Y-33373000D01*
X5976250Y-33373000D01*
X6135000Y-33214250D01*
X6138072Y-32625000D01*
X6125812Y-32500518D01*
X6089502Y-32380820D01*
X6030537Y-32270506D01*
X5951185Y-32173815D01*
X5854494Y-32094463D01*
X5744180Y-32035498D01*
X5624482Y-31999188D01*
X5500000Y-31986928D01*
X5135750Y-31990000D01*
X4977000Y-32148750D01*
X4723000Y-32148750D01*
X4564250Y-31990000D01*
X4200000Y-31986928D01*
X4075518Y-31999188D01*
X3955820Y-32035498D01*
X3845506Y-32094463D01*
X3748815Y-32173815D01*
X3669463Y-32270506D01*
X3610498Y-32380820D01*
X3574188Y-32500518D01*
X3561928Y-32625000D01*
X-3666852Y-32625000D01*
X-3674188Y-32550518D01*
X-3710498Y-32430820D01*
X-3769463Y-32320506D01*
X-3848815Y-32223815D01*
X-3945506Y-32144463D01*
X-4055820Y-32085498D01*
X-4175518Y-32049188D01*
X-4300000Y-32036928D01*
X-4664250Y-32040000D01*
X-4823000Y-32198750D01*
X-5077000Y-32198750D01*
X-5235750Y-32040000D01*
X-5600000Y-32036928D01*
X-5724482Y-32049188D01*
X-5844180Y-32085498D01*
X-5954494Y-32144463D01*
X-6051185Y-32223815D01*
X-6130537Y-32320506D01*
X-6189502Y-32430820D01*
X-6225812Y-32550518D01*
X-6238072Y-32675000D01*
X-6802272Y-32675000D01*
X-6829528Y-32585150D01*
X-6911595Y-32431614D01*
X-7022038Y-32297038D01*
X-7156614Y-32186595D01*
X-7310150Y-32104528D01*
X-7476746Y-32053992D01*
X-7650000Y-32036928D01*
X-8450000Y-32036928D01*
X-8623254Y-32053992D01*
X-8789850Y-32104528D01*
X-8943386Y-32186595D01*
X-9077962Y-32297038D01*
X-9188405Y-32431614D01*
X-9270472Y-32585150D01*
X-9321008Y-32751746D01*
X-9324776Y-32790000D01*
X-10085006Y-32790000D01*
X-10237688Y-32561495D01*
X-10451495Y-32347688D01*
X-10567763Y-32270000D01*
X-10451495Y-32192312D01*
X-10237688Y-31978505D01*
X-10069701Y-31727095D01*
X-9953989Y-31447743D01*
X-9895000Y-31151184D01*
X-9895000Y-30848816D01*
X-9953989Y-30552257D01*
X-10069701Y-30272905D01*
X-10237688Y-30021495D01*
X-10451495Y-29807688D01*
X-10567763Y-29730000D01*
X-10451495Y-29652312D01*
X-10237688Y-29438505D01*
X-10069701Y-29187095D01*
X-9953989Y-28907743D01*
X-9895000Y-28611184D01*
X-9895000Y-28308816D01*
X-9953989Y-28012257D01*
X-10069701Y-27732905D01*
X-10237688Y-27481495D01*
X-10451495Y-27267688D01*
X-10567763Y-27190000D01*
X-10451495Y-27112312D01*
X-10237688Y-26898505D01*
X-10069701Y-26647095D01*
X-9953989Y-26367743D01*
X-9895000Y-26071184D01*
X-9895000Y-25768816D01*
X-9953989Y-25472257D01*
X-10069701Y-25192905D01*
X-10237688Y-24941495D01*
X-10451495Y-24727688D01*
X-10567763Y-24650000D01*
X-10451495Y-24572312D01*
X-10237688Y-24358505D01*
X-10069701Y-24107095D01*
X-9953989Y-23827743D01*
X-9895000Y-23531184D01*
X-9895000Y-23446553D01*
X9889009Y-23446553D01*
X9931603Y-23745907D01*
X10031778Y-24031199D01*
X10111739Y-24180792D01*
X10365920Y-24264475D01*
X11250395Y-23380000D01*
X11609605Y-23380000D01*
X12494080Y-24264475D01*
X12748261Y-24180792D01*
X12879158Y-23908225D01*
X12954365Y-23615358D01*
X12970991Y-23313447D01*
X12928397Y-23014093D01*
X12828222Y-22728801D01*
X12748261Y-22579208D01*
X12494080Y-22495525D01*
X11609605Y-23380000D01*
X11250395Y-23380000D01*
X10365920Y-22495525D01*
X10111739Y-22579208D01*
X9980842Y-22851775D01*
X9905635Y-23144642D01*
X9889009Y-23446553D01*
X-9895000Y-23446553D01*
X-9895000Y-23228816D01*
X-9953989Y-22932257D01*
X-10069701Y-22652905D01*
X-10237688Y-22401495D01*
X-10323263Y-22315920D01*
X10545525Y-22315920D01*
X11430000Y-23200395D01*
X12314475Y-22315920D01*
X12230792Y-22061739D01*
X11958225Y-21930842D01*
X11665358Y-21855635D01*
X11363447Y-21839009D01*
X11064093Y-21881603D01*
X10778801Y-21981778D01*
X10629208Y-22061739D01*
X10545525Y-22315920D01*
X-10323263Y-22315920D01*
X-10451495Y-22187688D01*
X-10702905Y-22019701D01*
X-10982257Y-21903989D01*
X-11278816Y-21845000D01*
X-11581184Y-21845000D01*
X-11877743Y-21903989D01*
X-12157095Y-22019701D01*
X-12408505Y-22187688D01*
X-12622312Y-22401495D01*
X-12790299Y-22652905D01*
X-12906011Y-22932257D01*
X-12965000Y-23228816D01*
X-12965000Y-23531184D01*
X-12906011Y-23827743D01*
X-12790299Y-24107095D01*
X-12622312Y-24358505D01*
X-12408505Y-24572312D01*
X-12292237Y-24650000D01*
X-12408505Y-24727688D01*
X-12622312Y-24941495D01*
X-12790299Y-25192905D01*
X-12906011Y-25472257D01*
X-12965000Y-25768816D01*
X-12965000Y-26071184D01*
X-12906011Y-26367743D01*
X-12790299Y-26647095D01*
X-12622312Y-26898505D01*
X-12408505Y-27112312D01*
X-12292237Y-27190000D01*
X-12408505Y-27267688D01*
X-12622312Y-27481495D01*
X-12790299Y-27732905D01*
X-12906011Y-28012257D01*
X-12965000Y-28308816D01*
X-12965000Y-28611184D01*
X-12906011Y-28907743D01*
X-12790299Y-29187095D01*
X-12622312Y-29438505D01*
X-12408505Y-29652312D01*
X-12292237Y-29730000D01*
X-12408505Y-29807688D01*
X-12622312Y-30021495D01*
X-12790299Y-30272905D01*
X-12906011Y-30552257D01*
X-12965000Y-30848816D01*
X-12965000Y-31151184D01*
X-12906011Y-31447743D01*
X-12790299Y-31727095D01*
X-12622312Y-31978505D01*
X-12408505Y-32192312D01*
X-12292237Y-32270000D01*
X-12408505Y-32347688D01*
X-12622312Y-32561495D01*
X-12790299Y-32812905D01*
X-12906011Y-33092257D01*
X-12965000Y-33388816D01*
X-12965000Y-33691184D01*
X-12913731Y-33948930D01*
X-13811002Y-34846201D01*
X-13840000Y-34869999D01*
X-13863798Y-34898997D01*
X-13863799Y-34898998D01*
X-13934974Y-34985724D01*
X-14005546Y-35117754D01*
X-14026345Y-35186321D01*
X-14049002Y-35261014D01*
X-14052370Y-35295206D01*
X-14063676Y-35410000D01*
X-20260960Y-35410000D01*
X-20260960Y-30853740D01*
X-20025000Y-30853740D01*
X-20025000Y-31146260D01*
X-19967932Y-31433158D01*
X-19855990Y-31703411D01*
X-19693475Y-31946632D01*
X-19486632Y-32153475D01*
X-19243411Y-32315990D01*
X-18973158Y-32427932D01*
X-18686260Y-32485000D01*
X-18393740Y-32485000D01*
X-18106842Y-32427932D01*
X-17836589Y-32315990D01*
X-17593368Y-32153475D01*
X-17461513Y-32021620D01*
X-17439502Y-32094180D01*
X-17380537Y-32204494D01*
X-17301185Y-32301185D01*
X-17204494Y-32380537D01*
X-17094180Y-32439502D01*
X-16974482Y-32475812D01*
X-16850000Y-32488072D01*
X-15150000Y-32488072D01*
X-15025518Y-32475812D01*
X-14905820Y-32439502D01*
X-14795506Y-32380537D01*
X-14698815Y-32301185D01*
X-14619463Y-32204494D01*
X-14560498Y-32094180D01*
X-14524188Y-31974482D01*
X-14511928Y-31850000D01*
X-14511928Y-30150000D01*
X-14524188Y-30025518D01*
X-14560498Y-29905820D01*
X-14619463Y-29795506D01*
X-14698815Y-29698815D01*
X-14795506Y-29619463D01*
X-14905820Y-29560498D01*
X-15025518Y-29524188D01*
X-15150000Y-29511928D01*
X-16850000Y-29511928D01*
X-16974482Y-29524188D01*
X-17094180Y-29560498D01*
X-17204494Y-29619463D01*
X-17301185Y-29698815D01*
X-17380537Y-29795506D01*
X-17439502Y-29905820D01*
X-17461513Y-29978380D01*
X-17593368Y-29846525D01*
X-17836589Y-29684010D01*
X-18106842Y-29572068D01*
X-18393740Y-29515000D01*
X-18686260Y-29515000D01*
X-18973158Y-29572068D01*
X-19243411Y-29684010D01*
X-19486632Y-29846525D01*
X-19693475Y-30053368D01*
X-19855990Y-30296589D01*
X-19967932Y-30566842D01*
X-20025000Y-30853740D01*
X-20260960Y-30853740D01*
X-20260960Y-29044765D01*
X-20191524Y-28601616D01*
X-20021831Y-28262144D01*
X-19758338Y-27989002D01*
X-19359376Y-27773501D01*
X-19340572Y-27766572D01*
X-19295813Y-27739167D01*
X-19281552Y-27731464D01*
X-19265029Y-27720319D01*
X-19248037Y-27709915D01*
X-19235114Y-27700140D01*
X-19191600Y-27670789D01*
X-19177490Y-27656555D01*
X-18757113Y-27338591D01*
X-18718523Y-27313538D01*
X-18673615Y-27269802D01*
X-18627578Y-27227279D01*
X-18621819Y-27219359D01*
X-18614801Y-27212524D01*
X-18579290Y-27160870D01*
X-18542433Y-27110181D01*
X-18538329Y-27101287D01*
X-18532780Y-27093216D01*
X-18508037Y-27035647D01*
X-18481768Y-26978722D01*
X-18471008Y-26933980D01*
X-18315934Y-26446092D01*
X-18313623Y-26441768D01*
X-18294026Y-26377167D01*
X-18284555Y-26347368D01*
X-18283541Y-26342601D01*
X-18271595Y-26303220D01*
X-18268516Y-26271960D01*
X-18261982Y-26241239D01*
X-18261438Y-26200093D01*
X-18260960Y-26195240D01*
X-18260960Y-26163938D01*
X-18260068Y-26096470D01*
X-18260960Y-26091654D01*
X-18260960Y-10650000D01*
X-16988072Y-10650000D01*
X-16988072Y-13150000D01*
X-16975812Y-13274482D01*
X-16939502Y-13394180D01*
X-16880537Y-13504494D01*
X-16801185Y-13601185D01*
X-16704494Y-13680537D01*
X-16594180Y-13739502D01*
X-16474482Y-13775812D01*
X-16350000Y-13788072D01*
X-14850000Y-13788072D01*
X-14725518Y-13775812D01*
X-14605820Y-13739502D01*
X-14495506Y-13680537D01*
X-14398815Y-13601185D01*
X-14319463Y-13504494D01*
X-14260498Y-13394180D01*
X-14224188Y-13274482D01*
X-14214527Y-13176392D01*
X-14044080Y-13384081D01*
X-13833187Y-13557157D01*
X-13592580Y-13685764D01*
X-13331506Y-13764960D01*
X-13060000Y-13791701D01*
X-12788493Y-13764960D01*
X-12527419Y-13685764D01*
X-12286812Y-13557157D01*
X-12075919Y-13384081D01*
X-11902843Y-13173188D01*
X-11790000Y-12962073D01*
X-11677157Y-13173188D01*
X-11504080Y-13384081D01*
X-11293187Y-13557157D01*
X-11052580Y-13685764D01*
X-10791506Y-13764960D01*
X-10520000Y-13791701D01*
X-10248493Y-13764960D01*
X-9987419Y-13685764D01*
X-9746812Y-13557157D01*
X-9535919Y-13384081D01*
X-9362843Y-13173188D01*
X-9234236Y-12932581D01*
X-9155040Y-12671507D01*
X-9135000Y-12468037D01*
X-9135000Y-11331963D01*
X-9155040Y-11128493D01*
X-9224352Y-10900000D01*
X10061928Y-10900000D01*
X10061928Y-12500000D01*
X10074188Y-12624482D01*
X10110498Y-12744180D01*
X10169463Y-12854494D01*
X10248815Y-12951185D01*
X10345506Y-13030537D01*
X10455820Y-13089502D01*
X10575518Y-13125812D01*
X10700000Y-13138072D01*
X12300000Y-13138072D01*
X12424482Y-13125812D01*
X12544180Y-13089502D01*
X12654494Y-13030537D01*
X12751185Y-12951185D01*
X12830537Y-12854494D01*
X12889502Y-12744180D01*
X12925812Y-12624482D01*
X12938072Y-12500000D01*
X12938072Y-10900000D01*
X12925812Y-10775518D01*
X12889502Y-10655820D01*
X12830537Y-10545506D01*
X12751185Y-10448815D01*
X12654494Y-10369463D01*
X12544180Y-10310498D01*
X12448057Y-10281339D01*
X12614637Y-10114759D01*
X12771680Y-9879727D01*
X12879853Y-9618574D01*
X12935000Y-9341335D01*
X12935000Y-9058665D01*
X12879853Y-8781426D01*
X12771680Y-8520273D01*
X12614637Y-8285241D01*
X12414759Y-8085363D01*
X12179727Y-7928320D01*
X11918574Y-7820147D01*
X11641335Y-7765000D01*
X11358665Y-7765000D01*
X11081426Y-7820147D01*
X10820273Y-7928320D01*
X10585241Y-8085363D01*
X10385363Y-8285241D01*
X10228320Y-8520273D01*
X10120147Y-8781426D01*
X10065000Y-9058665D01*
X10065000Y-9341335D01*
X10120147Y-9618574D01*
X10228320Y-9879727D01*
X10385363Y-10114759D01*
X10551943Y-10281339D01*
X10455820Y-10310498D01*
X10345506Y-10369463D01*
X10248815Y-10448815D01*
X10169463Y-10545506D01*
X10110498Y-10655820D01*
X10074188Y-10775518D01*
X10061928Y-10900000D01*
X-9224352Y-10900000D01*
X-9234236Y-10867419D01*
X-9362843Y-10626812D01*
X-9535920Y-10415919D01*
X-9746813Y-10242843D01*
X-9987420Y-10114236D01*
X-10248494Y-10035040D01*
X-10520000Y-10008299D01*
X-10791507Y-10035040D01*
X-11052581Y-10114236D01*
X-11293188Y-10242843D01*
X-11504081Y-10415920D01*
X-11677157Y-10626813D01*
X-11790000Y-10837927D01*
X-11902843Y-10626812D01*
X-12075920Y-10415919D01*
X-12286813Y-10242843D01*
X-12527420Y-10114236D01*
X-12788494Y-10035040D01*
X-13060000Y-10008299D01*
X-13331507Y-10035040D01*
X-13592581Y-10114236D01*
X-13833188Y-10242843D01*
X-14044081Y-10415920D01*
X-14214527Y-10623609D01*
X-14224188Y-10525518D01*
X-14260498Y-10405820D01*
X-14319463Y-10295506D01*
X-14398815Y-10198815D01*
X-14495506Y-10119463D01*
X-14605820Y-10060498D01*
X-14725518Y-10024188D01*
X-14850000Y-10011928D01*
X-16350000Y-10011928D01*
X-16474482Y-10024188D01*
X-16594180Y-10060498D01*
X-16704494Y-10119463D01*
X-16801185Y-10198815D01*
X-16880537Y-10295506D01*
X-16939502Y-10405820D01*
X-16975812Y-10525518D01*
X-16988072Y-10650000D01*
X-18260960Y-10650000D01*
X-18260960Y-5883411D01*
X-18260067Y-5878589D01*
X-18260960Y-5811150D01*
X-18260960Y-5779830D01*
X-18261439Y-5774965D01*
X-18261984Y-5733819D01*
X-18268516Y-5703108D01*
X-18271595Y-5671850D01*
X-18282773Y-5635000D01*
X-11000000Y-5635000D01*
X-10876118Y-5622799D01*
X-10756996Y-5586664D01*
X-10647213Y-5527983D01*
X-10550987Y-5449013D01*
X-10472017Y-5352787D01*
X-10413336Y-5243004D01*
X-10377201Y-5123882D01*
X-10365000Y-5000000D01*
X-10365000Y4277466D01*
X-10068208Y4277466D01*
X-9517237Y4167871D01*
G37*
%TD.AperFunction*%
%TD*%
M02*
