%TF.GenerationSoftware,KiCad,Pcbnew,(5.1.9-0-10_14)*%
%TF.CreationDate,2024-01-29T22:25:58+01:00*%
%TF.ProjectId,masthead,6d617374-6865-4616-942e-6b696361645f,rev?*%
%TF.SameCoordinates,Original*%
%TF.FileFunction,Profile,NP*%
%FSLAX46Y46*%
G04 Gerber Fmt 4.6, Leading zero omitted, Abs format (unit mm)*
G04 Created by KiCad (PCBNEW (5.1.9-0-10_14)) date 2024-01-29 22:25:58*
%MOMM*%
%LPD*%
G01*
G04 APERTURE LIST*
%TA.AperFunction,Profile*%
%ADD10C,0.200000*%
%TD*%
G04 APERTURE END LIST*
D10*
X-13795960Y-10585D02*
X-13869646Y554223D01*
X-13869646Y-575393D02*
X-13795960Y-10585D01*
X-14090704Y-1110585D02*
X-13869646Y-575393D01*
X-14443665Y-1569623D02*
X-14090704Y-1110585D01*
X-14895960Y-1915841D02*
X-14443665Y-1569623D01*
X-15421941Y-2134431D02*
X-14895960Y-1915841D01*
X-15995960Y-2210585D02*
X-15421941Y-2134431D01*
X6948142Y-3986500D02*
X5690146Y-5641889D01*
X7737421Y-2062985D02*
X6948142Y-3986500D01*
X8003880Y34075D02*
X7737421Y-2062985D01*
X8003880Y3012465D02*
X8003880Y34075D01*
X8156121Y3777832D02*
X8003880Y3012465D01*
X8589666Y4426679D02*
X8156121Y3777832D01*
X-18995960Y-26159135D02*
X-19179467Y-26736481D01*
X-15995960Y2189415D02*
X-15995960Y2189415D01*
X-15421941Y2113261D02*
X-15995960Y2189415D01*
X-14895960Y1894671D02*
X-15421941Y2113261D01*
X-14443665Y1548453D02*
X-14895960Y1894671D01*
X-14090704Y1089415D02*
X-14443665Y1548453D01*
X-13869646Y554223D02*
X-14090704Y1089415D01*
X-17901216Y-1110585D02*
X-17548255Y-1569623D01*
X-18122274Y-575393D02*
X-17901216Y-1110585D01*
X-18195960Y-10585D02*
X-18122274Y-575393D01*
X-18122274Y554223D02*
X-18195960Y-10585D01*
X-17901216Y1089415D02*
X-18122274Y554223D01*
X-17548255Y1548453D02*
X-17901216Y1089415D01*
X-17095960Y1894671D02*
X-17548255Y1548453D01*
X-16569979Y2113261D02*
X-17095960Y1894671D01*
X-15995960Y2189415D02*
X-16569979Y2113261D01*
X16004080Y2189415D02*
X16004080Y2189415D01*
X16578099Y2113261D02*
X16004080Y2189415D01*
X17104080Y1894671D02*
X16578099Y2113261D01*
X17556375Y1548453D02*
X17104080Y1894671D01*
X17909336Y1089415D02*
X17556375Y1548453D01*
X18130394Y554223D02*
X17909336Y1089415D01*
X18204080Y-10585D02*
X18130394Y554223D01*
X18130394Y-575393D02*
X18204080Y-10585D01*
X17909336Y-1110585D02*
X18130394Y-575393D01*
X17556375Y-1569623D02*
X17909336Y-1110585D01*
X17104080Y-1915841D02*
X17556375Y-1569623D01*
X16578099Y-2134431D02*
X17104080Y-1915841D01*
X-11068649Y-50306834D02*
X-8108467Y-50868253D01*
X-14003061Y-49569659D02*
X-11068649Y-50306834D01*
X-19662630Y-27101935D02*
X-20208076Y-27396560D01*
X-16903969Y-48656152D02*
X-14003061Y-49569659D01*
X-19763640Y-47565735D02*
X-16903969Y-48656152D01*
X14451785Y-1569623D02*
X14904080Y-1915841D01*
X14098824Y-1110585D02*
X14451785Y-1569623D01*
X13877766Y-575393D02*
X14098824Y-1110585D01*
X13804080Y-10585D02*
X13877766Y-575393D01*
X13877766Y554223D02*
X13804080Y-10585D01*
X14098824Y1089415D02*
X13877766Y554223D01*
X14451785Y1548453D02*
X14098824Y1089415D01*
X16004080Y-2210585D02*
X16578099Y-2134431D01*
X15430061Y-2134431D02*
X16004080Y-2210585D01*
X14904080Y-1915841D02*
X15430061Y-2134431D01*
X14904080Y1894671D02*
X14451785Y1548453D01*
X15430061Y2113261D02*
X14904080Y1894671D01*
X16004080Y2189415D02*
X15430061Y2113261D01*
X-9995820Y5012466D02*
X-9995820Y5012466D01*
X-20208080Y-4578526D02*
X-19662630Y-4873155D01*
X-9230453Y4860225D02*
X-9995820Y5012466D01*
X-8581606Y4426679D02*
X-9230453Y4860225D01*
X-8148061Y3777832D02*
X-8581606Y4426679D01*
X-20995960Y-28987535D02*
X-20995960Y-45718935D01*
X-20899996Y-28375076D02*
X-20995960Y-28987535D01*
X19004080Y-5633835D02*
X19187562Y-5056511D01*
X19004080Y-34010635D02*
X19004080Y-5633835D01*
X19156321Y-34776002D02*
X19004080Y-34010635D01*
X-20628949Y-27832846D02*
X-20899996Y-28375076D01*
X-20208076Y-27396560D02*
X-20628949Y-27832846D01*
X-7995820Y3012465D02*
X-8148061Y3777832D01*
X-7995820Y35515D02*
X-7995820Y3012465D01*
X-7729738Y-2061593D02*
X-7995820Y35515D01*
X9238513Y4860225D02*
X8589666Y4426679D01*
X10003880Y5012466D02*
X9238513Y4860225D01*
X19004080Y5012466D02*
X10003880Y5012466D01*
X19769447Y4860225D02*
X19004080Y5012466D01*
X20418294Y4426679D02*
X19769447Y4860225D01*
X-20410174Y4426679D02*
X-20843719Y3777832D01*
X20851839Y3777832D02*
X20418294Y4426679D01*
X21004080Y3012465D02*
X20851839Y3777832D01*
X21004080Y-2805425D02*
X21004080Y3012465D01*
X20908109Y-3417901D02*
X21004080Y-2805425D01*
X19589866Y-35424849D02*
X19156321Y-34776002D01*
X20238713Y-35858394D02*
X19589866Y-35424849D01*
X21004080Y-36010635D02*
X20238713Y-35858394D01*
X23479380Y-36010635D02*
X21004080Y-36010635D01*
X24039504Y-36090591D02*
X23479380Y-36010635D01*
X24545744Y-36318617D02*
X24039504Y-36090591D01*
X24969877Y-36676927D02*
X24545744Y-36318617D01*
X25283680Y-37147735D02*
X24969877Y-36676927D01*
X20637046Y-3960142D02*
X20908109Y-3417901D01*
X20216151Y-4396429D02*
X20637046Y-3960142D01*
X19670680Y-4691045D02*
X20216151Y-4396429D01*
X19187562Y-5056511D02*
X19670680Y-4691045D01*
X-18995960Y-5815935D02*
X-18995960Y-26159135D01*
X27379980Y-41530935D02*
X25283680Y-37147735D01*
X27570923Y-42250443D02*
X27379980Y-41530935D01*
X27491681Y-42967517D02*
X27570923Y-42250443D01*
X27163814Y-43610149D02*
X27491681Y-42967517D01*
X26608880Y-44106335D02*
X27163814Y-43610149D01*
X23942652Y-45608985D02*
X26608880Y-44106335D01*
X21209395Y-46942802D02*
X23942652Y-45608985D01*
X18416841Y-48107210D02*
X21209395Y-46942802D01*
X15572725Y-49101631D02*
X18416841Y-48107210D01*
X12684780Y-49925488D02*
X15572725Y-49101631D01*
X9760738Y-50578205D02*
X12684780Y-49925488D01*
X6808333Y-51059205D02*
X9760738Y-50578205D01*
X3835299Y-51367911D02*
X6808333Y-51059205D01*
X849369Y-51503745D02*
X3835299Y-51367911D01*
X-2141725Y-51466132D02*
X849369Y-51503745D01*
X-5130247Y-51254493D02*
X-2141725Y-51466132D01*
X-8108467Y-50868253D02*
X-5130247Y-51254493D01*
X-6940805Y-3985250D02*
X-7729738Y-2061593D01*
X-5683107Y-5640866D02*
X-6940805Y-3985250D01*
X-4010729Y-6933853D02*
X-5683107Y-5640866D01*
X-2058216Y-7744010D02*
X-4010729Y-6933853D01*
X3306Y-8014189D02*
X-2058216Y-7744010D01*
X2064876Y-7744381D02*
X3306Y-8014189D01*
X4017535Y-6934575D02*
X2064876Y-7744381D01*
X5690146Y-5641889D02*
X4017535Y-6934575D01*
X-19761327Y4860225D02*
X-20410174Y4426679D01*
X-9995820Y5012466D02*
X-18995960Y5012466D01*
X-18995960Y5012466D02*
X-19761327Y4860225D01*
X-19179473Y-5238601D02*
X-18995960Y-5815935D01*
X-20995960Y-2987535D02*
X-20900000Y-3600000D01*
X-20843719Y3777832D02*
X-20995960Y3012465D01*
X-16569979Y-2134431D02*
X-15995960Y-2210585D01*
X-17095960Y-1915841D02*
X-16569979Y-2134431D01*
X-17548255Y-1569623D02*
X-17095960Y-1915841D01*
X-19179467Y-26736481D02*
X-19662630Y-27101935D01*
X-20628955Y-4142236D02*
X-20208080Y-4578526D01*
X-19662630Y-4873155D02*
X-19179473Y-5238601D01*
X-20995960Y3012465D02*
X-20995960Y-2987535D01*
X-20270959Y-47259956D02*
X-19763640Y-47565735D01*
X-20659595Y-46829035D02*
X-20270959Y-47259956D01*
X-20908333Y-46304764D02*
X-20659595Y-46829035D01*
X-20995960Y-45718935D02*
X-20908333Y-46304764D01*
X-20900000Y-3600000D02*
X-20628955Y-4142236D01*
M02*
