%TF.GenerationSoftware,KiCad,Pcbnew,(5.1.9-0-10_14)*%
%TF.CreationDate,2024-02-01T11:15:19+01:00*%
%TF.ProjectId,masthead,6d617374-6865-4616-942e-6b696361645f,rev?*%
%TF.SameCoordinates,Original*%
%TF.FileFunction,Legend,Top*%
%TF.FilePolarity,Positive*%
%FSLAX46Y46*%
G04 Gerber Fmt 4.6, Leading zero omitted, Abs format (unit mm)*
G04 Created by KiCad (PCBNEW (5.1.9-0-10_14)) date 2024-02-01 11:15:19*
%MOMM*%
%LPD*%
G01*
G04 APERTURE LIST*
%ADD10C,0.875000*%
%ADD11C,0.120000*%
%ADD12C,0.150000*%
G04 APERTURE END LIST*
D10*
X8666666Y50000D02*
X11333333Y50000D01*
X-11333333Y50000D02*
X-8666666Y50000D01*
X-10000000Y-1283333D02*
X-10000000Y1383333D01*
D11*
%TO.C,U3*%
X14250000Y-14350000D02*
X16550000Y-14350000D01*
X14250000Y-14350000D02*
X14250000Y-16650000D01*
X14250000Y-16650000D02*
X16550000Y-16650000D01*
X16550000Y-16650000D02*
X16550000Y-14350000D01*
%TO.C,SW1*%
X-17270000Y-29670000D02*
X-17270000Y-32330000D01*
X-17270000Y-29670000D02*
X-19870000Y-29670000D01*
X-19870000Y-29670000D02*
X-19870000Y-32330000D01*
X-17270000Y-32330000D02*
X-19870000Y-32330000D01*
X-14670000Y-32330000D02*
X-16000000Y-32330000D01*
X-14670000Y-31000000D02*
X-14670000Y-32330000D01*
%TO.C,RH1*%
X16394611Y-45162082D02*
X15832528Y-43956693D01*
X15832528Y-43956693D02*
X17037918Y-43394611D01*
X18188929Y-42857885D02*
X25149372Y-39612177D01*
X26273537Y-42022956D02*
X25149372Y-39612177D01*
X19313093Y-45268664D02*
X26273537Y-42022956D01*
X19313093Y-45268664D02*
X18188929Y-42857885D01*
%TO.C,J2*%
X20000000Y-4000000D02*
X12000000Y-4000000D01*
X20000000Y4000000D02*
X20000000Y-4000000D01*
X12000000Y4000000D02*
X20000000Y4000000D01*
X12000000Y-4000000D02*
X12000000Y4000000D01*
X16500000Y-2000000D02*
X16500000Y2000000D01*
X15500000Y-2000000D02*
X15500000Y2000000D01*
X18000000Y0D02*
G75*
G03*
X18000000Y0I-2000000J0D01*
G01*
%TO.C,J1*%
X-12000000Y-4000000D02*
X-20000000Y-4000000D01*
X-12000000Y4000000D02*
X-12000000Y-4000000D01*
X-20000000Y4000000D02*
X-12000000Y4000000D01*
X-20000000Y-4000000D02*
X-20000000Y4000000D01*
X-15500000Y-2000000D02*
X-15500000Y2000000D01*
X-16500000Y-2000000D02*
X-16500000Y2000000D01*
X-14000000Y0D02*
G75*
G03*
X-14000000Y0I-2000000J0D01*
G01*
%TO.C,U1*%
X-19350000Y-14350000D02*
X-17020000Y-14350000D01*
X-19350000Y-11900000D02*
X-19350000Y-14350000D01*
X-7080000Y-14020000D02*
X-19020000Y-14020000D01*
X-7080000Y-6170000D02*
X-7080000Y-14020000D01*
X-19020000Y-6170000D02*
X-7080000Y-6170000D01*
X-19020000Y-14020000D02*
X-19020000Y-6170000D01*
%TO.C,C1*%
X14770000Y-10450000D02*
G75*
G03*
X14770000Y-10450000I-3270000J0D01*
G01*
X8270000Y-10450000D02*
X14730000Y-10450000D01*
X8270000Y-10410000D02*
X14730000Y-10410000D01*
X8270000Y-10370000D02*
X14730000Y-10370000D01*
X8272000Y-10330000D02*
X14728000Y-10330000D01*
X8273000Y-10290000D02*
X14727000Y-10290000D01*
X8276000Y-10250000D02*
X14724000Y-10250000D01*
X8278000Y-10210000D02*
X10460000Y-10210000D01*
X12540000Y-10210000D02*
X14722000Y-10210000D01*
X8282000Y-10170000D02*
X10460000Y-10170000D01*
X12540000Y-10170000D02*
X14718000Y-10170000D01*
X8285000Y-10130000D02*
X10460000Y-10130000D01*
X12540000Y-10130000D02*
X14715000Y-10130000D01*
X8289000Y-10090000D02*
X10460000Y-10090000D01*
X12540000Y-10090000D02*
X14711000Y-10090000D01*
X8294000Y-10050000D02*
X10460000Y-10050000D01*
X12540000Y-10050000D02*
X14706000Y-10050000D01*
X8299000Y-10010000D02*
X10460000Y-10010000D01*
X12540000Y-10010000D02*
X14701000Y-10010000D01*
X8305000Y-9970000D02*
X10460000Y-9970000D01*
X12540000Y-9970000D02*
X14695000Y-9970000D01*
X8311000Y-9930000D02*
X10460000Y-9930000D01*
X12540000Y-9930000D02*
X14689000Y-9930000D01*
X8318000Y-9890000D02*
X10460000Y-9890000D01*
X12540000Y-9890000D02*
X14682000Y-9890000D01*
X8325000Y-9850000D02*
X10460000Y-9850000D01*
X12540000Y-9850000D02*
X14675000Y-9850000D01*
X8333000Y-9810000D02*
X10460000Y-9810000D01*
X12540000Y-9810000D02*
X14667000Y-9810000D01*
X8341000Y-9770000D02*
X10460000Y-9770000D01*
X12540000Y-9770000D02*
X14659000Y-9770000D01*
X8350000Y-9729000D02*
X10460000Y-9729000D01*
X12540000Y-9729000D02*
X14650000Y-9729000D01*
X8359000Y-9689000D02*
X10460000Y-9689000D01*
X12540000Y-9689000D02*
X14641000Y-9689000D01*
X8369000Y-9649000D02*
X10460000Y-9649000D01*
X12540000Y-9649000D02*
X14631000Y-9649000D01*
X8379000Y-9609000D02*
X10460000Y-9609000D01*
X12540000Y-9609000D02*
X14621000Y-9609000D01*
X8390000Y-9569000D02*
X10460000Y-9569000D01*
X12540000Y-9569000D02*
X14610000Y-9569000D01*
X8402000Y-9529000D02*
X10460000Y-9529000D01*
X12540000Y-9529000D02*
X14598000Y-9529000D01*
X8414000Y-9489000D02*
X10460000Y-9489000D01*
X12540000Y-9489000D02*
X14586000Y-9489000D01*
X8426000Y-9449000D02*
X10460000Y-9449000D01*
X12540000Y-9449000D02*
X14574000Y-9449000D01*
X8439000Y-9409000D02*
X10460000Y-9409000D01*
X12540000Y-9409000D02*
X14561000Y-9409000D01*
X8453000Y-9369000D02*
X10460000Y-9369000D01*
X12540000Y-9369000D02*
X14547000Y-9369000D01*
X8467000Y-9329000D02*
X10460000Y-9329000D01*
X12540000Y-9329000D02*
X14533000Y-9329000D01*
X8482000Y-9289000D02*
X10460000Y-9289000D01*
X12540000Y-9289000D02*
X14518000Y-9289000D01*
X8498000Y-9249000D02*
X10460000Y-9249000D01*
X12540000Y-9249000D02*
X14502000Y-9249000D01*
X8514000Y-9209000D02*
X10460000Y-9209000D01*
X12540000Y-9209000D02*
X14486000Y-9209000D01*
X8530000Y-9169000D02*
X10460000Y-9169000D01*
X12540000Y-9169000D02*
X14470000Y-9169000D01*
X8548000Y-9129000D02*
X10460000Y-9129000D01*
X12540000Y-9129000D02*
X14452000Y-9129000D01*
X8566000Y-9089000D02*
X10460000Y-9089000D01*
X12540000Y-9089000D02*
X14434000Y-9089000D01*
X8584000Y-9049000D02*
X10460000Y-9049000D01*
X12540000Y-9049000D02*
X14416000Y-9049000D01*
X8604000Y-9009000D02*
X10460000Y-9009000D01*
X12540000Y-9009000D02*
X14396000Y-9009000D01*
X8624000Y-8969000D02*
X10460000Y-8969000D01*
X12540000Y-8969000D02*
X14376000Y-8969000D01*
X8644000Y-8929000D02*
X10460000Y-8929000D01*
X12540000Y-8929000D02*
X14356000Y-8929000D01*
X8666000Y-8889000D02*
X10460000Y-8889000D01*
X12540000Y-8889000D02*
X14334000Y-8889000D01*
X8688000Y-8849000D02*
X10460000Y-8849000D01*
X12540000Y-8849000D02*
X14312000Y-8849000D01*
X8710000Y-8809000D02*
X10460000Y-8809000D01*
X12540000Y-8809000D02*
X14290000Y-8809000D01*
X8734000Y-8769000D02*
X10460000Y-8769000D01*
X12540000Y-8769000D02*
X14266000Y-8769000D01*
X8758000Y-8729000D02*
X10460000Y-8729000D01*
X12540000Y-8729000D02*
X14242000Y-8729000D01*
X8784000Y-8689000D02*
X10460000Y-8689000D01*
X12540000Y-8689000D02*
X14216000Y-8689000D01*
X8810000Y-8649000D02*
X10460000Y-8649000D01*
X12540000Y-8649000D02*
X14190000Y-8649000D01*
X8836000Y-8609000D02*
X10460000Y-8609000D01*
X12540000Y-8609000D02*
X14164000Y-8609000D01*
X8864000Y-8569000D02*
X10460000Y-8569000D01*
X12540000Y-8569000D02*
X14136000Y-8569000D01*
X8893000Y-8529000D02*
X10460000Y-8529000D01*
X12540000Y-8529000D02*
X14107000Y-8529000D01*
X8922000Y-8489000D02*
X10460000Y-8489000D01*
X12540000Y-8489000D02*
X14078000Y-8489000D01*
X8952000Y-8449000D02*
X10460000Y-8449000D01*
X12540000Y-8449000D02*
X14048000Y-8449000D01*
X8984000Y-8409000D02*
X10460000Y-8409000D01*
X12540000Y-8409000D02*
X14016000Y-8409000D01*
X9016000Y-8369000D02*
X10460000Y-8369000D01*
X12540000Y-8369000D02*
X13984000Y-8369000D01*
X9050000Y-8329000D02*
X10460000Y-8329000D01*
X12540000Y-8329000D02*
X13950000Y-8329000D01*
X9084000Y-8289000D02*
X10460000Y-8289000D01*
X12540000Y-8289000D02*
X13916000Y-8289000D01*
X9120000Y-8249000D02*
X10460000Y-8249000D01*
X12540000Y-8249000D02*
X13880000Y-8249000D01*
X9157000Y-8209000D02*
X10460000Y-8209000D01*
X12540000Y-8209000D02*
X13843000Y-8209000D01*
X9195000Y-8169000D02*
X10460000Y-8169000D01*
X12540000Y-8169000D02*
X13805000Y-8169000D01*
X9235000Y-8129000D02*
X13765000Y-8129000D01*
X9276000Y-8089000D02*
X13724000Y-8089000D01*
X9318000Y-8049000D02*
X13682000Y-8049000D01*
X9363000Y-8009000D02*
X13637000Y-8009000D01*
X9408000Y-7969000D02*
X13592000Y-7969000D01*
X9456000Y-7929000D02*
X13544000Y-7929000D01*
X9505000Y-7889000D02*
X13495000Y-7889000D01*
X9556000Y-7849000D02*
X13444000Y-7849000D01*
X9610000Y-7809000D02*
X13390000Y-7809000D01*
X9666000Y-7769000D02*
X13334000Y-7769000D01*
X9724000Y-7729000D02*
X13276000Y-7729000D01*
X9786000Y-7689000D02*
X13214000Y-7689000D01*
X9850000Y-7649000D02*
X13150000Y-7649000D01*
X9919000Y-7609000D02*
X13081000Y-7609000D01*
X9991000Y-7569000D02*
X13009000Y-7569000D01*
X10068000Y-7529000D02*
X12932000Y-7529000D01*
X10150000Y-7489000D02*
X12850000Y-7489000D01*
X10238000Y-7449000D02*
X12762000Y-7449000D01*
X10335000Y-7409000D02*
X12665000Y-7409000D01*
X10441000Y-7369000D02*
X12559000Y-7369000D01*
X10560000Y-7329000D02*
X12440000Y-7329000D01*
X10698000Y-7289000D02*
X12302000Y-7289000D01*
X10867000Y-7249000D02*
X12133000Y-7249000D01*
X11098000Y-7209000D02*
X11902000Y-7209000D01*
X9661000Y-13950241D02*
X9661000Y-13320241D01*
X9346000Y-13635241D02*
X9976000Y-13635241D01*
D12*
%TO.C,U2*%
X-8890000Y-48780000D02*
X-8890000Y-25920000D01*
X8890000Y-48780000D02*
X-8890000Y-48780000D01*
X8890000Y-25920000D02*
X8890000Y-48780000D01*
X-8890000Y-25920000D02*
X8890000Y-25920000D01*
X6350000Y-27190000D02*
X-6350000Y-27190000D01*
X6350000Y-41160000D02*
X6350000Y-27190000D01*
X-6350000Y-41160000D02*
X6350000Y-41160000D01*
X-6350000Y-27190000D02*
X-6350000Y-41160000D01*
D11*
%TO.C,R3*%
X-5772936Y-37010000D02*
X-7227064Y-37010000D01*
X-5772936Y-35190000D02*
X-7227064Y-35190000D01*
%TO.C,R2*%
X-5772936Y-34460000D02*
X-7227064Y-34460000D01*
X-5772936Y-32640000D02*
X-7227064Y-32640000D01*
%TO.C,R1*%
X5672936Y-32590000D02*
X7127064Y-32590000D01*
X5672936Y-34410000D02*
X7127064Y-34410000D01*
%TO.C,U3*%
D12*
X14638095Y-13002380D02*
X14638095Y-13811904D01*
X14685714Y-13907142D01*
X14733333Y-13954761D01*
X14828571Y-14002380D01*
X15019047Y-14002380D01*
X15114285Y-13954761D01*
X15161904Y-13907142D01*
X15209523Y-13811904D01*
X15209523Y-13002380D01*
X15590476Y-13002380D02*
X16209523Y-13002380D01*
X15876190Y-13383333D01*
X16019047Y-13383333D01*
X16114285Y-13430952D01*
X16161904Y-13478571D01*
X16209523Y-13573809D01*
X16209523Y-13811904D01*
X16161904Y-13907142D01*
X16114285Y-13954761D01*
X16019047Y-14002380D01*
X15733333Y-14002380D01*
X15638095Y-13954761D01*
X15590476Y-13907142D01*
%TO.C,SW1*%
X-18533333Y-28804761D02*
X-18390476Y-28852380D01*
X-18152380Y-28852380D01*
X-18057142Y-28804761D01*
X-18009523Y-28757142D01*
X-17961904Y-28661904D01*
X-17961904Y-28566666D01*
X-18009523Y-28471428D01*
X-18057142Y-28423809D01*
X-18152380Y-28376190D01*
X-18342857Y-28328571D01*
X-18438095Y-28280952D01*
X-18485714Y-28233333D01*
X-18533333Y-28138095D01*
X-18533333Y-28042857D01*
X-18485714Y-27947619D01*
X-18438095Y-27900000D01*
X-18342857Y-27852380D01*
X-18104761Y-27852380D01*
X-17961904Y-27900000D01*
X-17628571Y-27852380D02*
X-17390476Y-28852380D01*
X-17200000Y-28138095D01*
X-17009523Y-28852380D01*
X-16771428Y-27852380D01*
X-15866666Y-28852380D02*
X-16438095Y-28852380D01*
X-16152380Y-28852380D02*
X-16152380Y-27852380D01*
X-16247619Y-27995238D01*
X-16342857Y-28090476D01*
X-16438095Y-28138095D01*
X-18609523Y-33152380D02*
X-18038095Y-33152380D01*
X-18323809Y-34152380D02*
X-18323809Y-33152380D01*
X-17704761Y-34152380D02*
X-17704761Y-33152380D01*
X-16752380Y-34152380D02*
X-17228571Y-34152380D01*
X-17228571Y-33152380D01*
X-16561904Y-33152380D02*
X-15990476Y-33152380D01*
X-16276190Y-34152380D02*
X-16276190Y-33152380D01*
%TO.C,RH1*%
X19765400Y-41101804D02*
X19262051Y-40811101D01*
X19247510Y-41343300D02*
X18824892Y-40436992D01*
X19170152Y-40275995D01*
X19276591Y-40278903D01*
X19339874Y-40301936D01*
X19423280Y-40368126D01*
X19483654Y-40497599D01*
X19480746Y-40604038D01*
X19457714Y-40667320D01*
X19391523Y-40750727D01*
X19046263Y-40911725D01*
X20153818Y-40920682D02*
X19731199Y-40014374D01*
X19932446Y-40445949D02*
X20450336Y-40204453D01*
X20671708Y-40679185D02*
X20249090Y-39772878D01*
X21578016Y-40256567D02*
X21060125Y-40498063D01*
X21319070Y-40377315D02*
X20896452Y-39471007D01*
X20870511Y-39640729D01*
X20824446Y-39767294D01*
X20758255Y-39850701D01*
X19610458Y-46798158D02*
X20042033Y-46596911D01*
X19644891Y-47097352D02*
X19524375Y-46050171D01*
X20249096Y-46815606D01*
X20551198Y-46674734D02*
X20128580Y-45768426D01*
X20732553Y-46274916D01*
X20732785Y-45486680D01*
X21155404Y-46392988D01*
X21161452Y-45391873D02*
X21184485Y-45328591D01*
X21250676Y-45245184D01*
X21466463Y-45144561D01*
X21572903Y-45147469D01*
X21636185Y-45170502D01*
X21719592Y-45236692D01*
X21759841Y-45323007D01*
X21777058Y-45472604D01*
X21500664Y-46231991D01*
X22061711Y-45970370D01*
X21941196Y-44923189D02*
X22502243Y-44661569D01*
X22361138Y-45147701D01*
X22490611Y-45087327D01*
X22597051Y-45090236D01*
X22660333Y-45113268D01*
X22743740Y-45179459D01*
X22844363Y-45395246D01*
X22841455Y-45501686D01*
X22818422Y-45564968D01*
X22752232Y-45648375D01*
X22493287Y-45769123D01*
X22386847Y-45766215D01*
X22323565Y-45743182D01*
X22887753Y-44586886D02*
X22910786Y-44523604D01*
X22976976Y-44440197D01*
X23192764Y-44339574D01*
X23299203Y-44342482D01*
X23362486Y-44365515D01*
X23445892Y-44431705D01*
X23486142Y-44518020D01*
X23503358Y-44667617D01*
X23226964Y-45427004D01*
X23788012Y-45165383D01*
X23926441Y-43997454D02*
X24012756Y-43957205D01*
X24119196Y-43960113D01*
X24182478Y-43983146D01*
X24265885Y-44049336D01*
X24389541Y-44201841D01*
X24490165Y-44417629D01*
X24527506Y-44610384D01*
X24524598Y-44716824D01*
X24501565Y-44780106D01*
X24435375Y-44863513D01*
X24349060Y-44903762D01*
X24242620Y-44900854D01*
X24179338Y-44877821D01*
X24095931Y-44811631D01*
X23972275Y-44659125D01*
X23871651Y-44443338D01*
X23834310Y-44250583D01*
X23837218Y-44144143D01*
X23860251Y-44080861D01*
X23926441Y-43997454D01*
%TO.C,J2*%
X15666666Y3747619D02*
X15666666Y3033333D01*
X15619047Y2890476D01*
X15523809Y2795238D01*
X15380952Y2747619D01*
X15285714Y2747619D01*
X16095238Y3652380D02*
X16142857Y3700000D01*
X16238095Y3747619D01*
X16476190Y3747619D01*
X16571428Y3700000D01*
X16619047Y3652380D01*
X16666666Y3557142D01*
X16666666Y3461904D01*
X16619047Y3319047D01*
X16047619Y2747619D01*
X16666666Y2747619D01*
%TO.C,J1*%
X-16333333Y3747619D02*
X-16333333Y3033333D01*
X-16380952Y2890476D01*
X-16476190Y2795238D01*
X-16619047Y2747619D01*
X-16714285Y2747619D01*
X-15333333Y2747619D02*
X-15904761Y2747619D01*
X-15619047Y2747619D02*
X-15619047Y3747619D01*
X-15714285Y3604761D01*
X-15809523Y3509523D01*
X-15904761Y3461904D01*
%TO.C,U1*%
X-13761904Y-6852380D02*
X-13761904Y-7661904D01*
X-13714285Y-7757142D01*
X-13666666Y-7804761D01*
X-13571428Y-7852380D01*
X-13380952Y-7852380D01*
X-13285714Y-7804761D01*
X-13238095Y-7757142D01*
X-13190476Y-7661904D01*
X-13190476Y-6852380D01*
X-12190476Y-7852380D02*
X-12761904Y-7852380D01*
X-12476190Y-7852380D02*
X-12476190Y-6852380D01*
X-12571428Y-6995238D01*
X-12666666Y-7090476D01*
X-12761904Y-7138095D01*
X-17742857Y-14602380D02*
X-17171428Y-14602380D01*
X-17457142Y-15602380D02*
X-17457142Y-14602380D01*
X-16885714Y-15554761D02*
X-16742857Y-15602380D01*
X-16504761Y-15602380D01*
X-16409523Y-15554761D01*
X-16361904Y-15507142D01*
X-16314285Y-15411904D01*
X-16314285Y-15316666D01*
X-16361904Y-15221428D01*
X-16409523Y-15173809D01*
X-16504761Y-15126190D01*
X-16695238Y-15078571D01*
X-16790476Y-15030952D01*
X-16838095Y-14983333D01*
X-16885714Y-14888095D01*
X-16885714Y-14792857D01*
X-16838095Y-14697619D01*
X-16790476Y-14650000D01*
X-16695238Y-14602380D01*
X-16457142Y-14602380D01*
X-16314285Y-14650000D01*
X-15314285Y-15602380D02*
X-15647619Y-15126190D01*
X-15885714Y-15602380D02*
X-15885714Y-14602380D01*
X-15504761Y-14602380D01*
X-15409523Y-14650000D01*
X-15361904Y-14697619D01*
X-15314285Y-14792857D01*
X-15314285Y-14935714D01*
X-15361904Y-15030952D01*
X-15409523Y-15078571D01*
X-15504761Y-15126190D01*
X-15885714Y-15126190D01*
X-15123809Y-15697619D02*
X-14361904Y-15697619D01*
X-13600000Y-15602380D02*
X-14171428Y-15602380D01*
X-13885714Y-15602380D02*
X-13885714Y-14602380D01*
X-13980952Y-14745238D01*
X-14076190Y-14840476D01*
X-14171428Y-14888095D01*
X-13171428Y-15221428D02*
X-12409523Y-15221428D01*
X-11980952Y-14697619D02*
X-11933333Y-14650000D01*
X-11838095Y-14602380D01*
X-11600000Y-14602380D01*
X-11504761Y-14650000D01*
X-11457142Y-14697619D01*
X-11409523Y-14792857D01*
X-11409523Y-14888095D01*
X-11457142Y-15030952D01*
X-12028571Y-15602380D01*
X-11409523Y-15602380D01*
X-10552380Y-14935714D02*
X-10552380Y-15602380D01*
X-10790476Y-14554761D02*
X-11028571Y-15269047D01*
X-10409523Y-15269047D01*
X-9552380Y-14602380D02*
X-10028571Y-14602380D01*
X-10076190Y-15078571D01*
X-10028571Y-15030952D01*
X-9933333Y-14983333D01*
X-9695238Y-14983333D01*
X-9600000Y-15030952D01*
X-9552380Y-15078571D01*
X-9504761Y-15173809D01*
X-9504761Y-15411904D01*
X-9552380Y-15507142D01*
X-9600000Y-15554761D01*
X-9695238Y-15602380D01*
X-9933333Y-15602380D01*
X-10028571Y-15554761D01*
X-10076190Y-15507142D01*
X-8885714Y-14602380D02*
X-8790476Y-14602380D01*
X-8695238Y-14650000D01*
X-8647619Y-14697619D01*
X-8600000Y-14792857D01*
X-8552380Y-14983333D01*
X-8552380Y-15221428D01*
X-8600000Y-15411904D01*
X-8647619Y-15507142D01*
X-8695238Y-15554761D01*
X-8790476Y-15602380D01*
X-8885714Y-15602380D01*
X-8980952Y-15554761D01*
X-9028571Y-15507142D01*
X-9076190Y-15411904D01*
X-9123809Y-15221428D01*
X-9123809Y-14983333D01*
X-9076190Y-14792857D01*
X-9028571Y-14697619D01*
X-8980952Y-14650000D01*
X-8885714Y-14602380D01*
%TO.C,C1*%
X11333333Y-6557142D02*
X11285714Y-6604761D01*
X11142857Y-6652380D01*
X11047619Y-6652380D01*
X10904761Y-6604761D01*
X10809523Y-6509523D01*
X10761904Y-6414285D01*
X10714285Y-6223809D01*
X10714285Y-6080952D01*
X10761904Y-5890476D01*
X10809523Y-5795238D01*
X10904761Y-5700000D01*
X11047619Y-5652380D01*
X11142857Y-5652380D01*
X11285714Y-5700000D01*
X11333333Y-5747619D01*
X12285714Y-6652380D02*
X11714285Y-6652380D01*
X12000000Y-6652380D02*
X12000000Y-5652380D01*
X11904761Y-5795238D01*
X11809523Y-5890476D01*
X11714285Y-5938095D01*
%TO.C,U2*%
X-761904Y-30452380D02*
X-761904Y-31261904D01*
X-714285Y-31357142D01*
X-666666Y-31404761D01*
X-571428Y-31452380D01*
X-380952Y-31452380D01*
X-285714Y-31404761D01*
X-238095Y-31357142D01*
X-190476Y-31261904D01*
X-190476Y-30452380D01*
X238095Y-30547619D02*
X285714Y-30500000D01*
X380952Y-30452380D01*
X619047Y-30452380D01*
X714285Y-30500000D01*
X761904Y-30547619D01*
X809523Y-30642857D01*
X809523Y-30738095D01*
X761904Y-30880952D01*
X190476Y-31452380D01*
X809523Y-31452380D01*
X-4161904Y-32952380D02*
X-3923809Y-33952380D01*
X-3733333Y-33238095D01*
X-3542857Y-33952380D01*
X-3304761Y-32952380D01*
X-2542857Y-33904761D02*
X-2638095Y-33952380D01*
X-2828571Y-33952380D01*
X-2923809Y-33904761D01*
X-2971428Y-33809523D01*
X-2971428Y-33428571D01*
X-2923809Y-33333333D01*
X-2828571Y-33285714D01*
X-2638095Y-33285714D01*
X-2542857Y-33333333D01*
X-2495238Y-33428571D01*
X-2495238Y-33523809D01*
X-2971428Y-33619047D01*
X-2066666Y-33952380D02*
X-2066666Y-32952380D01*
X-1733333Y-33666666D01*
X-1399999Y-32952380D01*
X-1399999Y-33952380D01*
X-780952Y-33952380D02*
X-876190Y-33904761D01*
X-923809Y-33857142D01*
X-971428Y-33761904D01*
X-971428Y-33476190D01*
X-923809Y-33380952D01*
X-876190Y-33333333D01*
X-780952Y-33285714D01*
X-638095Y-33285714D01*
X-542857Y-33333333D01*
X-495238Y-33380952D01*
X-447619Y-33476190D01*
X-447619Y-33761904D01*
X-495238Y-33857142D01*
X-542857Y-33904761D01*
X-638095Y-33952380D01*
X-780952Y-33952380D01*
X-66666Y-33904761D02*
X28571Y-33952380D01*
X219047Y-33952380D01*
X314285Y-33904761D01*
X361904Y-33809523D01*
X361904Y-33761904D01*
X314285Y-33666666D01*
X219047Y-33619047D01*
X76190Y-33619047D01*
X-19047Y-33571428D01*
X-66666Y-33476190D01*
X-66666Y-33428571D01*
X-19047Y-33333333D01*
X76190Y-33285714D01*
X219047Y-33285714D01*
X314285Y-33333333D01*
X552380Y-34047619D02*
X1314285Y-34047619D01*
X1552380Y-33952380D02*
X1552380Y-33285714D01*
X1552380Y-33380952D02*
X1600000Y-33333333D01*
X1695238Y-33285714D01*
X1838095Y-33285714D01*
X1933333Y-33333333D01*
X1980952Y-33428571D01*
X1980952Y-33952380D01*
X1980952Y-33428571D02*
X2028571Y-33333333D01*
X2123809Y-33285714D01*
X2266666Y-33285714D01*
X2361904Y-33333333D01*
X2409523Y-33428571D01*
X2409523Y-33952380D01*
X2885714Y-33952380D02*
X2885714Y-33285714D01*
X2885714Y-32952380D02*
X2838095Y-33000000D01*
X2885714Y-33047619D01*
X2933333Y-33000000D01*
X2885714Y-32952380D01*
X2885714Y-33047619D01*
X3361904Y-33285714D02*
X3361904Y-33952380D01*
X3361904Y-33380952D02*
X3409523Y-33333333D01*
X3504761Y-33285714D01*
X3647619Y-33285714D01*
X3742857Y-33333333D01*
X3790476Y-33428571D01*
X3790476Y-33952380D01*
X4266666Y-33952380D02*
X4266666Y-33285714D01*
X4266666Y-32952380D02*
X4219047Y-33000000D01*
X4266666Y-33047619D01*
X4314285Y-33000000D01*
X4266666Y-32952380D01*
X4266666Y-33047619D01*
%TO.C,R3*%
D11*
X-6633333Y-36461904D02*
X-6900000Y-36080952D01*
X-7090476Y-36461904D02*
X-7090476Y-35661904D01*
X-6785714Y-35661904D01*
X-6709523Y-35700000D01*
X-6671428Y-35738095D01*
X-6633333Y-35814285D01*
X-6633333Y-35928571D01*
X-6671428Y-36004761D01*
X-6709523Y-36042857D01*
X-6785714Y-36080952D01*
X-7090476Y-36080952D01*
X-6366666Y-35661904D02*
X-5871428Y-35661904D01*
X-6138095Y-35966666D01*
X-6023809Y-35966666D01*
X-5947619Y-36004761D01*
X-5909523Y-36042857D01*
X-5871428Y-36119047D01*
X-5871428Y-36309523D01*
X-5909523Y-36385714D01*
X-5947619Y-36423809D01*
X-6023809Y-36461904D01*
X-6252380Y-36461904D01*
X-6328571Y-36423809D01*
X-6366666Y-36385714D01*
%TO.C,R2*%
X-6633333Y-33911904D02*
X-6900000Y-33530952D01*
X-7090476Y-33911904D02*
X-7090476Y-33111904D01*
X-6785714Y-33111904D01*
X-6709523Y-33150000D01*
X-6671428Y-33188095D01*
X-6633333Y-33264285D01*
X-6633333Y-33378571D01*
X-6671428Y-33454761D01*
X-6709523Y-33492857D01*
X-6785714Y-33530952D01*
X-7090476Y-33530952D01*
X-6328571Y-33188095D02*
X-6290476Y-33150000D01*
X-6214285Y-33111904D01*
X-6023809Y-33111904D01*
X-5947619Y-33150000D01*
X-5909523Y-33188095D01*
X-5871428Y-33264285D01*
X-5871428Y-33340476D01*
X-5909523Y-33454761D01*
X-6366666Y-33911904D01*
X-5871428Y-33911904D01*
%TO.C,R1*%
X6266666Y-33861904D02*
X6000000Y-33480952D01*
X5809523Y-33861904D02*
X5809523Y-33061904D01*
X6114285Y-33061904D01*
X6190476Y-33100000D01*
X6228571Y-33138095D01*
X6266666Y-33214285D01*
X6266666Y-33328571D01*
X6228571Y-33404761D01*
X6190476Y-33442857D01*
X6114285Y-33480952D01*
X5809523Y-33480952D01*
X7028571Y-33861904D02*
X6571428Y-33861904D01*
X6800000Y-33861904D02*
X6800000Y-33061904D01*
X6723809Y-33176190D01*
X6647619Y-33252380D01*
X6571428Y-33290476D01*
%TD*%
M02*
